<mxfile host="app.diagrams.net" modified="2020-08-18T20:32:51.086Z" agent="5.0 (Windows NT 10.0; Win64; x64) AppleWebKit/537.36 (KHTML, like Gecko) Chrome/84.0.4147.125 Safari/537.36" etag="N3w81f3KyBtYCRh8XZWm" version="13.6.3" type="github">
  <diagram id="GuUf5Zotukp7aPX_NzP-" name="Page-1">
    <mxGraphModel dx="1422" dy="762" grid="1" gridSize="10" guides="1" tooltips="1" connect="1" arrows="1" fold="1" page="1" pageScale="1" pageWidth="850" pageHeight="1100" math="0" shadow="0">
      <root>
        <mxCell id="0" />
        <mxCell id="1" parent="0" />
        <mxCell id="mp4lFU_r3pzBxrtEqFHD-3" value="" style="shape=image;verticalLabelPosition=bottom;labelBackgroundColor=#ffffff;verticalAlign=top;aspect=fixed;imageAspect=0;image=data:image/png,iVBORw0KGgoAAAANSUhEUgAAAiAAAADYCAYAAADS11hBAAAgAElEQVR4Aey9BViUTfc//l7/3+93fb/vN9542qe7H5/HDuzuQAwQFRO7G8XubsVOVGwRW7BosLsTEzFQzPO/Pmd3bmZvdtllWWKXmYtl5p6eM3d85sw5Z/5GyikKKAooCigKKAooCigKZDMF/pbN7anmFAUUBRQFFAUUBRQFFAVIARB1EygKKAooCigKKAooCmQ7BRQAyXaSqwYVBRQFFAUUBRQFFAUUAFH3gKKAooCigKKAooCiQLZTQAGQbCe5alBRQFFAUUBRQFFAUUABEHUPKAooCigKKAooCigKZDsFFADJdpKrBhUFFAUUBRQFFAUUBRQAUfeAooCigKKAooCigKJAtlNAAZBsJ7lqUFFAUUBRQFFAUUBRQAEQdQ8oCigKKAooCigKKApkOwUUAMl2kqsGFQUUBRQFFAUUBRQFFABR94CigKKAooCigKKAokC2UyBHAMjVK1dpx/bttDowkAJXrWIfYf6tCqTV9v5QB8qKuuRre+sU9Rl99HfbthC6euVKtk9WbmvwyqXLFBIcbP98WZuTwEBaY5xD4Wf6HhFtBgbSzh076Pq1a7mNrKo/igKKAooCeYICWQtA3hHRO/5jYj64f59mz5xF9evUpcoVKpJHPXdqWN/w47B7A2pY3/6fB9fVgOCLH+pr5KB6GzXwoHq161LlipWods1aNH3qNLp3757JjfLuHQbtgg7jMg7tTsIdmjxpMtWpXpMqlStPtavXpEbuHpmaO3PzzvPp3oA8MH/GORTzynF23iu4H3C/VS5fgdzr1qN5c+bSw4cPedLMzV5unlP0zVr/9On666y6W7Ornazqf1bW6+q0wficYYyin87Q1/TuRzEO5HGmsWQpAJEJAY5Ba59WVKJYcZo0cRJFRUZR0qMkevL4MfsIJyUl0eOkx5n4ifLwxS8z9YmyhnrR10eJjyguNpZGjRxFRQsXodYtW9G1q1e1e0PcCPLYtUQXCFy+dJl8vJtRsSJFadyYsRQbE8Mg7MnjJ5mYN0FnvW+8J0B3bT6N8/pYnzdj17jfIsIjaPy48TyWdm3a0vXrN9LMkJhH4afJkAsiRN+EL3fJWhzSzeWR6xDhjObLSN2ijbzg5xW62Hq/5NSc5/b+2UsXZxpXtgCQ69evk7enF1WtVJkiwsPtpWuuKxcTHUOVKlSkZk296fbt21r/nOkG0DptQ+De3bvk3cSLqleuQkfjj9hQwjmyREVEMleuRbPmlHDrlkmnxVwK3yQxF12gf+b6+M7ItjKXlhXdz652sqLv2VanhbnKtvbzeEPqHs09N0CWAhAM89WrV+Q/eDCVL1OW4mJiLY7cETeFI+qw2EELCceOHKVyZcrSgH79TXLkRF9MOuDgC4xnyGB/qlKpMp06cdKk9iwfazZsawFQlXErRSOHj6C3b97w+LJ8XCZUdMyFSZ+NW6A21/yO6Ob1G3TpwkW6dOkSXb58mX0RvnDhAqWkpNhcncpongL6bb6H9x9Q0Jq1NHbMGObITRg3npzhB+7huLHjaEHAfDpx7Lj5wTpBLN5nixYuYpqPHzvOKWiP+wN9nTxpEq0PWpdGFMAJyM5dzHIAEh0dTVUqVqY1gast0sTkpWkxl+0JT548ofPnzzvmZckvcf0rw7QvGFuRQoXpSFy8aYILXR0/dpzcipegjRs2aqMykCZVNkRLcGDg7Zu35D9oMEWGR2i1ZvZ+kcvL4RXLl1O5suUoJjpaa8tZA/K45DG8THnJC4FNGzfR3NlzGFT6tvUl93r1+QeAWal8RapSsVKaX+UKFah+nToGeZwGHtS/bz8aMXwErV29hg4fPMQvQUvtyn1QYQMFXiQ/p9mzZlG1ylWpYvkK1MG3PQ3o25/69enrFD/Mf/cu3ahu7TpUplRp6tGtO126eMlppvf0qdPUpVNnKu1Wiu/9Xt178D3tLPTHordr5y68KKxQtjzNnTOXXrx44TT0R0ezHIBAWLF+3XoE9r05J7+w5LC5vLbGBW/ZyjfVrh07bS1iNZ/cNzmMgvfv3qPGDRvRqJEjtXr0ebQEJw1MGj+Bmjf11oQ1s2sYK5evoK8+/4JqVa9Bd+7cydJmExISqGaNmjRrxiytHWefR3AswLlYtmQpfyBqVK1GpUuUZCFwyL307d2HxowaTfPnBXCejes3UHxsHB07doyOHT1q8I1haA0tXryYli9dRmNHj2Fg2LZ1G/Js3IRKlXSj8mXLUSOPhjRpwkQ6sH8/PXqYSG/fvtVoqQKpFOBtaa+mVLJ4CZoxbTpdOH+BHj54wLJrkIXLit/jx48p+dkzSk5Otvn37OnTdPuSmJhI165do53bd7BgPp7T6Kio1IHm0lDYvlC+X+vVqUsbgtaxNtyjR49Yjk1P+6dPnjDdQD99mr3XWCSjXnvLoxz68/DBQ7pw7jxzbSBf2cqnJd0wI8uWS6chawHIy5cvGdVjC0Zz6TMTtGz2Bs6dPUeVyleg//6P/6TGHg3p+tXMq1mKj5Dw9X3DKn3MyFHk06KFPsllrgE+Rg4bTm+M2xMsWmDcGsmqKQUnonRJN/rqs8/5B6FXS3PgKEL369uPVxUvnXyrAdpZa9esoVYtfHj7s26t2tS7Zy9aungJHTl6lG7dukX4eDx79ozwnGbU4T54/vw5v0DRFj6gWzdvoYkTJlBTTy/ezqpauQoDlfPnzqXeNxltyAXzQwAacmOQH8PWX1bf0zIJAUjx8eMP4NOn/BHEh1D8RBqAx4vnzzPERb5zO4G6denKWoJxsXFys7kqHB4eTsWLFmPux7075hfG+g6/fv1aH5WrrgH0IyMiqVqVqtS2VWtKNGr15apOmulMlnJAHtx/wOqwkyZM4Kaz+kHDy7R7l670648/MVvq4w8+pCGDBpO4ebKy/RnTp5NPs+ZmSOwaUU09PSlgzlyHD8bSnCQ+TOSP55effkZLFixkVdwfv/+Btm7Z6vA+yBViZY9VHD7QzuQECAQYBucPXEesiPr06k1hoWEMFOwBGhmlAV6EWGGfPXOGV/ZQny5bugyNHzeOHjx4wNXx1h1CotMZbcTJ848fM5bKlirN3KWMDcXATRLPjPDlOvRx8nV0ZBT5tm1HLbybUZuWrahNq9asxde2ZSvCD3HQ6mvdqjW1bd2aPBs2okULFmrvT7kdOSy3ARV9cIObeTWllOTncjYtLOfXIrMpcO/uPfJq4sljBRC05tBXgPb2vr50/uw5a9nNpvNtrtup3rljJ8v9ZJYW+vJH4uOpXOkyvL2qTzPbuRyOzFIAAtYc9pInT5yoDTOzRBHl9T4aWLZsGX32ST7q3rkLYdXV3LsZff3Fl7Rh/Qat/awKTJ82jVo2d10OiLeXV5YAEMyHmEsxN1hdw8bKR/9+jwb5+dGL5y8Iwr5//PY7C/zeunlTZHW4j+0IbFPcuJFWJdfhjTm4QgBtvCwL/lWAuR2nT51ycAsZrw5ckiWLFvOWqE/zFrxdiVoYhGSDcHHGe5w1JcQ9fuXyFV4c4cMuO5Eux8lha+nW8iY9ekTQ8mrt05KWL1vOxhpXrVhJ+AWuXMU/bHciDGN/w4cOo6KFCvN2nFy3pbDcvyPxR/gjuFYn94c8cj5LdWVl/KYNG8mtREk6fvSY1WZw74YfOszbiv/9n3/nj7rdW4o6sI0tz4rlyhMAgzmXUTrJ+adOmUoVK1R0iq2YrAcgFUwBiDliZyTO0k2MFVeB/H9S2ZJu2s0VExVNhQsU5D1v7INnpVMAxHHU3R+2n/787XeqVLaciY2V2TNm0leffs6yDMnPkrlB8eAJP7O9AACpWa063cxCkJPZPurLi7HDJgtYyxMnTASq02fLtmvRH7nB+Lh4qlWjJo0fO5ajRe/M5ZXLuVoYH/+a1WvQuTNntaFllAbIj22v+/fva7/k5GdafXJA1L1w/gLekr5x7bqcbDE8cfwEgnwPZA1sdaItcNp69ehJHdp3oHdvxUyn1iLypcZkTwicOfSre7fuWoOW+gIwv3LFSmri0ZBGDh1Gv//0M4OqkzoNQK0iawEd+MIC63/+8+8Mbm5L3FZL/bFefSqdb9+6zULNG9at14rZW69WQRYFshWAZBURYAQL6P6Hb76lNasCTUi1bPFS+vyTfNShnS+lvMg6FUIFQEzInqEL+b7APnKdmrXo2y++pJ0hO0zqefrkKfk0a0FffPY5r/RNEh104YwARAwdqypsvbx9bVAjFvF6X6a3Pi2z1+I1aK6NmTNnUkN3d60Jc3m0RBcLiLH6+w1iGSPIWFhyyCt++jwwa7Bhw0YaOnQYjRo1in8jRoyk6dNnsDAo8ou2hA+5j5YtfGjyxEn66sxev37zhj+Mixcu0uoym1GKFG2JKHDiADgTjPaR9OkiX3b6d+/cYZEA9E126Jv4iXgYnYSGzIf/fs+wPdXCh/72t7/RmNGj2bSEyAff2tj06eBGzZw+g4b6D2HO4JRJk+nly1dylXaF5XawpQYQaTfHxq4eZLxQ1gKQq4YtGEjFw8kEynhXDSVQh74eTOAnH33M6FafBvZ95w4d6f1//Zv3M+1t11o5BUCsUchyupgzqJCNGDacPnjvfZowZiylmFEpO3XqFBUrXIRKFC1GWFU72jk7AIG8xcXzWcvtS5fm2OvWhJMFHCF68/o1C6R7NWqiFUc+LW8Ocmy0DmVDoFe37jTU319rSYxfi5AC+rRXr15TYOAaatiwMdWpW5/q1W9A9eq5U9167lSzVh0aNnQY3biRuj0pyoP727hxI4LcAZyIZ1+aA9H02bNnWaMF2lD2upDgbVwHNKngTNq0t9JMlsO2avnSZWjd2iCtJkv9gjxhv9596OP3P6DihYvwAhbck+DgYBbMFeXksWmVWgmcPXOWZs2cSQBE4IhBi+zWzVSZM9Qt12+lOk7WlxnYtx8DECH/KOrIaL2iXFb52QJAbEXetgxST8Ddu3bT77/+xlZWr+pMoov6MOEVypajP//In2W2OhQAEdS234cq3+f5PiXPRo1NDOvo5xysRbwY2rVqQw8kaW99Pnt64swABHv4H77/AdtlwD58jjgAiVTcwV2AhgWEULGabObppXUL8yV+WqSLB3r36EmDBw3StILk8evvX/kaK+RVq1ZTo8ae1MCjEfsIN2zURPvVqeNOQ4YMS3OkAI6OaNa0KR3Yf0CjLq+MMU8S8BPt7d65k5o0akznz53X8mc0ELYvjLnSAoCI8vJ4RVx2+ZBJxJY8tMOsOXy4p2Jh+/4HlP+332nNatMy8jgE3azVKdL37d1HY8eMpadPn9LFCxepZ/cedOXyZU4W9QpflMmoD/A0cdz4NALEGe1rRtvNaP6sBSBZIIQqD/DunbtUp1Zt+uqLL2n/3n2cpL37tIChRPCmzfTNV1/zg4WJl50jJkUBEJmiGQ9D5gIqt3/99jtFWTHXD5bywP4D6KP33qeZM2aYfYlmvAeGEs4MQCDYCIvDHdv5klux4sxNOnPqtL2kyHQ5nJu0Yf16XuGBM1Ovdh22JWOuYkc8g+bqzak4S+MRAETPGhf5da8t7j7SwsIOkEfDxlSzVl2q7+5h4H6AA1LfEAYoqVO3AVWpUoNGjRxjsoKOj4tjrZQDYfs1coj2EGHAIakth2wLIb/+AzKkCSbXhzr37d3LqsbHbBD21DqVxQEAkKIFC7HhPK2p1GFrUSKwbctW+sff/4sPrLyWSXMO2NLZtWMH03TDhg00etRoBqFHjxyleXPnEg5qzYwD/eU5gH0fbMG8fmVQH5bTMtOOo8tmOwDJzABM7hWYBh80mPJ99DFNNm7xpFc3zGvDxgPkB0aOSDUYhjKi3sxMkgIg6VE//bTnyc+pS8dObHAMcgy2zANWDDhR+ecffmSjV1oLaRfgWpItAWcGILNmzmIth0eJiRQwdx6rE5cvXZa3IFcsW0ZnTp+xhQSZygN5LKgBDxk0iGrXqMkGyvAyPHH8OAXMDaCmTTwzVb+zFwYAgRyIHoCYG5d4DrAa37RpE23dupW2bttGK1aupEOHDtOOHTt5S2D/gYM0ZNgI2r59B23dEkyTJ082qf/8hfPk2bgx7QjZbq6ZNHHI17F9h1SZEl0O0S9dtMllrgYga9aa9NXShVBsqF6lKhv7spRPfD8spUMMYOiQIVQwf37CiepQTYfVUrioqCg6l46dHNDaFnrr29YASC63X+IUAESeABGGau3333zL7Hpbja5AahwS6L/89DPt2mneSqqoX/j6ibV0rQCIJcpYj4dlzS8+yUdtfFoSwIitbnvIdvrpux94heIotVlnBiAw6y3bogFNgtauZaHH2jVrsQpzvbr1yG/gQJo3dx5t2bKFTpw4wdZtoXII7YVX4vfqFQvb4eMHwUekiR9kdZKfJhM0KqCmCNVNyGG1bdOWjWvBIirsQAAEYQWMuuEWLlhAXo1TZUBsnWdXypcRACLGjTnYuXMnQf5pb9g+WrxkMa1evZrnbtWqQBo0eAht2hJMSUmPKTz8MAMV+f2F+WvVsiULPoo69b6cH9qD4CyfPGl65pMog7xyfhEv+84MQMTYYIxw2JCh9OnHnxC2N21xoqycFxx3yHl88K9/03v/+Cf9+fsftGvnLs4ing05vyPCCoAQMYLW2wGxhbjyJMphURbItHLFSizTAQSZERcaGkrffvkV23pIuJ1gtqi5Ns1mlCIVAJGIkYEgLEFChqdk0WLprjLMVYlV5LjRY+j9f/yTLdHiRcvO2pLEXGXGOGcGIBBsg8VavYNAHVTz8FEAl2TQAD9q0rARlSnpRhXLlqPK5SvwCceQnIchv26dOrPAKEy1t23ThnzbtaNOHTpS506dNTBToVx5Ej+AeqSPHjmKBfxggwdWVvUuYN48BUBs5IDI7yDYxQkJCaH169fToiVLacOGTTR69FjauXMXzZs3n/yHDKN16zfSqdPnaOTI0dS/f38TDgjmYcb0GWyAS1b51M+PuH76+AnLEeltlYh0+HL/5HgRdkYAIo9JhGNjYum3X36lGtWq05VLBjkNjBFm2xcvWkSxsaYHrIpygg7w3757y8cX/PzjT/RZvk8JzxVMqOudubL6PLZeKwCSCQACIsuTgbC4xuoLhsb+9T//ywaObJ0QkQ8PMwsXffAh9evTx0RIR7Qh8mbEVwAkI9Qy5AX6h1Ai1KcDV6aqT8vzba3WOwkJ1LRxE/oy32e0edNma9mtpjszAAEHBFYu03OgLWRocI7Eg3v36Vj8Edq3Zy+fAzN96lSaM2s2zZoxk8956dC+PQMQWFPFeSVImz1zFs2bM5eg5XDowEE+nwcvY5wxogFAqQPyM6UACJEtHBD9/Y93FuQGZs+eTQsXLaH+/f2oZ8/e1LVrDxo7bgIFb9tO/Qf40fARo6hxEy9q59tee1+Kqbh44QLBND7mTttzFolm/AnjxzMIuSkZ5JPnEkX013I1zghARP/lcSEMLc5//P2/yX/gIDZhj3yzZ86k7778itq0bk2vdWrvcnlRJ951ELLHO+qhJDgv0oVvrqy5OJHfkq8ASCYBCAgrCC98rHhxbDLsenRq38EsirQ0IXI8VmdeTZrQD99+R+slYy0ij2hPXNviKwCSPpXM0RRCUjjnBac6yulyOP1aDanREZEsXIaDvS5LqxRbyurzuBQAkThBttJU5IOP50389HRK71rUoc+jAIhtAERPN1wfPHiQfHx8qEGDhtSoURPWgoFQKjRhvLy8OQ6CqLXr1KPxEyaaPE+ivuXLV7BZfEsaUvK8QcAf2wZDBvtrGjuoR+QRvqhb7zszANGPBYdgtmvZmj5+/0Py9fWlwMBAWrZoMRX68y/6/edfaMvmzC989G1m9loBEAcAEP0kxMfHs7VTnLyZUYE66V3M1Z45fZr+/O0PKlW8BCGcWacASMYoeHD/fvr9l1/ZLDWMj8kOLzdrLzij6L5WDFZSGZh27KTJHGiJGQg4GwCR6TR71mxq0Sx9DoieFPrnQp9uy7Xog/AtlVkwL0Btwdi4BaOnIYDg+vUbqGnTZqwFA+ChqeE2bMy2QerWrU+jRo22qMIOA2OdOnZiDTK97IG5uTu4/wCVL1eOjhzJuEq3swIQc3TAXED+BsKjkOP45IMPWfYQ4Azh2jVqsEVaec5gdRWna+MHAIMzcgDqYPuDr/V+giEP0m7fvs35RT5RD6zfCmftuVUAJJMARH8jPEpKIhyI9kW+T1m1T0yELexELa+E4BG3auVK+vDf71PnDh3o8ZMnWjZ921pCOgEFQCwTR9BT+FC5xemsP337HYXuM6hPo7RIt1yTmRTjk4htBZwCiQMIYf3WXudsAEQeJ+Q7rG3BcH4jzeCZ/t5p1wLg8ZyYZpKbtBqW5xRCqUoI1boWjKCZ8AWRAUIg/+Hl1Yyq16zNKrm1atelWrXq8G/UqDEm4EOUk/0D+/ezhVLZZpKcrg937dKFhvj7azIl+j7p84trZwUg6D/GKMYpfMTjbCXcv//+n3+wTRvY2oAmXkff9nTx4kUeOrYiN2/cRB19O1D9OnWpfu26bJ2Yw3XqssA8wu5165n85HR3lNPlgQo75LYmjJ9A586mmvEX9Nb7CoDYC0Ckl6Mg6us3r/mY73/+9/+S34CBpitcY36RV/blm0eOF+Gkx0nUo0s3RrHzAwIIKwQ4a+VEedlXAMRADWu0gwwP5vC9f/6LzwXB/jYcf+Mko0gizlCr6X9uQ8y78In4BNZypUpTsYKF6OTx46aFbLxyZgCilwHRz4W4Fj5IgjD/DBdpqCTn1RIla6ciTuQTvqE6aXKIKCBAcUBslQExRz/EGQRSt9PY8eNp4qTJht/EyRQQMJ/u3k09Wl6eBzFH8GEUDmqloftC5WiL4S2bNrPqqHhOkVHULXxzhZ0dgJgbE+IuXbhI48eOYyFtnK8TFxtHQgsTGnwzpk6j7779lqpWqcqWufv27k29evbmwyF79+xlk99Hyt+nZy/iX6/erBr9158FWEPplJUzaRQAcSAA2R8WxvIadWvUIluRu3hQ0ntIkOfC+fNUxq0U/fbTLxQRGZnmvrNWXhTI6wBE0En4gi56H6uDbz7/gho38NA0JVDGXDnx+ZLTOCxZ25TT0BYMX+EEZAi3PpG4Wvp+WLp2ZgCi54DoaaO/FjRAPGgtp8thkU/zzQAQkcZ1GYGkvg4lA2KbDIhMQ0FXvY8tFPF78QJqzuJpSZ1HPf1FHVhNB9loCwMr+yrlK9DVy1dEcQNgtfDMikzODEAwBkE7vS/G99zMMRHRkZFUpGAh6tq1G128eJmSn6ewwPeLFy/J/l8KYdH2IiWFkh4/oe3bd1KxIkWpQ9t2oitmfQVA7AUgOnJiH6xGlap8GmFYaBiniptCl9Xspbm8Ik74QPnQxHCvV8/EIp1IN1uxLjKvAxCQA/QyRzPxaoR6JtQ+8//+u9lzXMyVlcnM9RtftaJO0a7IB4Nz/fv2Y3mQaVOmimjNt9aGKwEQbdDpBJimOs5TOtkzlKSvG1xGtQVjfQtGJrK1+1XOK4fTK4ftz/XSeSiinLkyDx48oErlylPE4XCRTfPN5ReJzg5AxDjgi3EKX06T05ctWUKF/ypAhw4eYsCRkHDXKAcC377fnTuijgS6d+8BPXr0mDkrOFoEW3KWnAIgmQAgYqLhDx7oR19++hmNGzNWuxEE0eV8Ii49X+TX54GBpSH+Q3hfD+fWyOqElsro68jLAAQ0kukkhwWdoHrWrXMX+uTDj2jZ0mX0RvfwmCsjylpKQ7xIEz7KQHWwSoWKlP/X32i30eCPVpcIWPBdFYDI9LEwdIdGm2tPcUBs44BgImT6QQgUnD2cgQR13I34rd9AMMaIa/6t38CaMvK7y9yE3r93j7dg9IBCbk8uB8HHKhUq0YljGdvSdAUAYokmMn3kMKw4ly5RkqIiI+nRoyQj6IAgqn3gw1DujibMevfufa4Lp+hWrlDJRDtJ7gfCCoBkAoAIYq5bt445E1CZtcROt3STWIoXdevTH9x/QA0beNB3X32d5qMlyqTn52UAItNF0FX4Im3Z4iVsu6Vjhw70IuWFiDbrQ6AUP+Fkbgc4HA8fPDB5QWv5pJX8vl172DYI2M1Xr10TWQibDXJ9WoIx4GoARJ4HCP/iY3X9+nWTYd9NuEP79uwhrHbhDh44wJYfVyxfQSuWLadVK1ayefV7d1Ol8GFVeP26dWxgCVYiV65YwWEc2iXql9tGvYoDYjsAkSdo+PDhPAewI4FzWmCDBb9twdvYFDvi5s+bT927djPRxtDTH3WGHw5nAXD5bBPxPCC/vszhg4eoWuUq9CTpsdwlq2FXACBWB6nLsGD+fHIrXoIiwiM0AAIOfmYAyO3bBk0aaMIIAOI/aDBVraQAiI78aS9x+I89llBR0+XLl1lF9o9ffqW4uLTHQssPCsLIH374cNpOAAhdvUaxMTEE1Sg4uaxcYO+ePfTnb7/zNsG1a6YvaTmfubACIKlU0dMX1gQL5f+TKpQpR6dtOBxt7dq15NXYk6B2rXfbt4VQtSpVeQWoT8O11vY7YoNzH/z7PfIf7J8ab66QFOdqAEQaGhsOg9VZWC3V6EREkRERfIbMceMqt0f37nySKbawYIAMP5wNAkNWe3fv4SpxymnF8hVo1IiRbOIbeWGOHcbKzp83f4qq4oDYB0D69unLgHBN4Go+SG3e7LkM9gAMAf5gCh/3bcsWPqzqKc85wvJcY45g0VZ/IKe+jLjGartHt+5aHXJdIo8535kBCMYo5GvwzUAYchjw09v2gFAqAEh4eLgGQAwAwjEckHv37tOdO/fYSCC+q7JgsH4OFAckExyQly9SCGahsfWyeOEiPW21a/EwYLVct04dNs2+Y/sOLR0BtpTp6UX5f/+D9AZ4RHlRANd4keJ0XUgs4wwGW50CIOYpBc6St1dTPok4yMy+s7lSMHEMoz+Q1j8uabPs2bWb5xGmkcGClp1+LpEGrQDvJp707Zdf0yANlnwAACAASURBVKaNm+TsFsOuDEDC9oXSD999zwfEgX0v3OEDB8mrUWM6arT3ALAxdfIUepFsePHi5Qtrp61btqK2rdswkD8SH09lSpVmcC9ezvyifv5CezHq50QBEPsACAz14X0EE94ABO1921Pnjp0Y/I0dPYZgMr1ZU282tY7nTTg9/fGehHonQEjys2SeR9mHyX7tOjmZThw9xobLsPWTUeesAAQ0i4mNZauzs2fPoWHDhhPUmxctWkRTpkyhM2fOaGAMNJFpDA5IqeIlKSLCwAEBWEhIyBwHBOXv3DFwQQBAbt++Q4P9BvPCXgEQK3elvRyQRfMX0LdffEXt27Vj1Ck3I0+4HI+H5Ncff+aDfsCqhIPxF5yN8fH7H1DPbt3p0cPU8ylEPcIXdeFl2tTTizUpbP1goqwCIIKCpv64sWMp3/sf0qCBfumuHuR5gEwOzOV/ni8fg5BTJ09SXGwsWx7849ffeBUor0Tksty64CkTsanxAn/k548uDl6z5lwZgADA1axajWZMmUrYmrp3z6C2GXH4MGsNCQCCs2Bgs0Pv/Ab6Mfs+8dEjOnr0KB889zLlpT6bxWsFQGwDILif5Xt64ICBfHrqzOkzKCI8nLlQOAkc4ANgAhaFwdXyad6C7t+zfKw7zIDjIDTfNm1p+LDhbOV0yCB/5hCCrQ/DWvD9/f3Z9kf9uvWoT8+e2jtYe6y0gMWp5nOHAIpwGGFucfgeFS1YiNamowEEkAaT99je2rVzNwUGrqHVq9fS3r37CAf/bd++XeOk68cFDggMW2KOcDCgYevFkTIgADR3FQdET3hL1/YAEAjwFPjzLypRrLi2l2ypfn381s1b6NeffmZVKLArO7TzpY/fe59wlgVWcLKTH3A5HmGsuqHqVKxwETp53PSjZamcAiB6KhLtDw1jU+t1atehhNu302ZIJwZCqlMnT6Yfv/2Oj5WH1Dce7qDVa9IpZT4JXLR//eOffJDac+M2nPmcxKzsmtWqE+QlnM3p1XD1/ccJ0DCAdPPGTfL29CJ8xODAMgboFgCkS6dONHrESD5MEvIc169dZ60lgHkYQoK9HAhGli1VmmVEgoODadvWYOZKwWKkJTdfGSKz6SwYmX543wwd7E8Xzl+gqMgotnWDI92H+A2iYf5D+Jj31asDeYu5V4+eLLColdepS2OOADJGDBtOw4cO4x9Oe0VY+CIenJaJEyZockFanTYGnJUDgsVPwLwACgnZQeA44Hf37j16+PARrVkTRGvWrNEAmZ4UqTIg2IIxAJDMyoAYOCgGDgj6oQCInurpXGcUgCQ+NJzRghMDIVhlzuGBtAQCkD94azAVLVyE8n3wEQuwYvXwKDF98GGuvtUrA+mbL7/ivXGxXyryCV/uX14HIHqa4MMFWQ1sl+zYYbotJtMNYX1ZOb1Pj570/j//RZ99ko9XfHKatbIi7+OkJOrWpSt98tHHtHTxEtlkgsii+WNGjSJXBSA40r1G1Wo8Vsg7QYYD2g1YpXp5emlblFhNe9Srzx+lkcNH8Cm3EETEicVnjTI8R+Li+bpJo8Z81Hubli3ZYBWEUC05BUBs44DI9MOzAaABFXacOQIhYjxTsDeBrTJsv+CE2yuXL/M9DmFFOPmZksNy3VkZdmYAsmD+Atq5czcDD2yjQBUWgCIoaB1BPg1bjeacYQumBMsiJiYKLZjMb8EIU+xCCHWw3yAWQoVAviWnZECsyICIhwI+fikvUmjCuPH04fsfMIvpxXPLmhJyWUyAuEb4xo0bVKdmLfrXf/0PffX5F3yEtTxJIq/wRZr+Gu1j3xUfLbA+4cB51OcT5fM6AGH6CC2Ud3jR9qJ8H39CkyZOFCRi2qWh31ss07QsJvQ9e+YsNXJvwAc+wQQ/tJROnjyZmjkDIdRVumQp+iv/n+naIHGlLRjQWtb52bljB9WoWpW3wrDViC2VLh070b7de6hVC59UDkjHTmx9MSw0lGAE8NDBgxS0di1Vq1RZO4E6NjqGAQysP9rqFACxHYCI5wS+v98gBhlnT59hK5zYcsGWMzSUAEDOnztPSIMWjAAgts6JPp9oV8RLj6aIssl3WgCSkkILAubTzl27NfkNcDEMACQoXQCyEFowxYrzFgzUcCGvkVkOCMAPzoZJSLjNAqioE9tkSgjVhtvQGgeEX5DGjxbkNr756muqUa063bp5y2Ltchk5jAIQOG3V3IflN5o28eQtlL/+yE97d+3W6hMPmN5HBhEnMl+9cpVKFitO0MSJijBaSdWxNUXevA5AZNrByuKP33xLzbya8rHvgkbII34ijgRo0SIMAch9VK9WnQWCly5aTJPHTyRwxqpXr04nJMFUuV1dFXzJ7RkTYIX12y+/Ivd69emxpFYo98nVOCAmAGSnAYAIFWcc0Y4Dttq08GGhb7Ffb0kGpE/vPtSzew+mJjgg4KDI5r/N0V+OUwDENgAi34+QdQIAuXXrFsVEx/D2CWQNIM8DH1smeDeBkwVtFXyscoNzdgCyY+cuBiAGQ2B3KDERHJAg/lnmgBi0YCCE6kgZEAFAsB2ELRjFAbHxDrcEQMRHQ/jYY65csRL9+vMvhFWXPS7hdgL5NG9OH733PuGQIGwBbA/eRj9//wMLXuGBtcftCNnOWzE4mhp753Ci33J9eRmAyC/Ms2fOsMAngN/pk5blAWTa6cMAHwCiH3/4EcEwnOCQYOWHw+Zq16xFx49lXLgNWk14mYt6xTwKH/1wJQ6Inq7MAalSlbDPLdyKZcvYYFvFcuU1FWlwRWbNmCmyaD4szPbr05ev4+PiqHzZchoAkWmoFdAFFACxHYAI0gGADB08mC5dusSgA2roWAFj68uriSfL7sTFxLLqMzggCoAIyqX18T2yJoSKZwNbMDu0LRio0KYCkHS3YAKMdkBYC8bxMiCww6NkQNLOq8UYSwBELpD8NJkfKBxzPG3aNE2FT85jLQxtlxbNmvP2DWQGYKhKOJhZ/+n7H1lFV28VU+RJz3/75i2NGT3acHja6LFkad8tLwMQQb8nj5+Qb+s29DnUpxctFtEZ8gFaqletxiAB1m/lrTi8HKZMnEQfffAh1alVi44eO5qhupE54U4Cl/3phx/ZuJa+AlcCIHpQEBISQhXKlTcBIFC9hHrnzz/+pAEQ33a+rI4uaCPqgfAinrOkpCQCB6R0STfWNON84NVjOy0dpwCIbQAEJBQ0h+/v58d0vn3zFq9+sVUNgVII2s+eOYvB4sGDB6lXz17aFowoD6vA2K7ZtGEjn9K6edMmo7+ZVdPBFdy0cSNt2rQp9bdxI2s5WbOqms5UO60WzMuUFJofMJ+279jFsh8GIVDbAAgM7cEOSGRkJCU6wBLq7dsG8AM1XGzl3LkLeZR7LEhcpWJFi98izIuSAbEiAyJu3nVrgvjcDh/vZgRz3cIlJiby8cdgLZ48cYL3/k8cP0EnT5wkqFPiB4l7sCVbNPWmTz/6mHp072FG24X4wfrlx5+oYP4/aX3QOi6HsqiD6zbWx+HjJ5idiUPvxEOMVUXD+u70Zb5P+cEXfZR9BUCI5s6cRZ9//AnbKMCHTThwp8C9wAp6YP8Bht+AATRwwAA+GRdxUNPt26cPValUmT41CpxCTkHvAEJQV76PPqZKlSpxnX4DB3JdqI9/aAPh/gN4y2DpkqX0nA/sMtS2f18o/fLDj2xYS7+F4EoABKMV9zCgATTBTp08lUYdGnIDR+OPaMJ1ly9dooRbaVn5iDt79iylvHzJ9iLAqXr56pVBNgr/LWxPijlUAMR2ACJohvkbNtifrl65wrJoXTt1psiISLY8i+dgyaLFvIDbu3cva/vpZUBgpKyVT0vat2cvBW/dysL9W7dspa1btrDA/pbNWyhk2zZOA6jBIg3qvfjhHWyvc4UtGGy/GH4AIEm8/ZIeB2TZ0qV8Fgzm4unTZD67BabscYaL/b/7dO/+PbZw++BhItcDcFGpfPk0z7E8VwqACABSoRJNlgQRZSKdPX2aihUqzLIaUL+VHZB6+TJl2fZD8cJFCD/OW6gI5y9WuDAVL1KU07/67HPq3b0777vJdYgw9sGxAvj9l1/p5+9/5HJanYULs9ZM0SKGeosWLEyFCxRkMCOvACCM9+uPPxHUQc+dOcdVy+u9vA5AcABTwb8KsPo0PlKygwAogMUv3//AcwCZGswFfrDrwf4vvzIo+On7H/jlJ+QUUI/4iIo6XxlBCA4Q/O2nn1Pr+PU3kzDqhSByB9/29PjxE1GcfRic+/rzL6hvr97aFg8SXA2AmAw6hy8UALEPgPgPHkyXL11mjge2xtatDWI7FcuXLqPpU6fxVie2PqHppQcgoHkL72aEgzxhjG/ZkqVs4wXyIwgDoMCC9LUrV1mNGvZfUOeYMWO07TV7bhunBiCsBbOTuQ1CDRZCpUFB62nt2iANqOvpEhUVxeYb2rRuzQtlbNljFwC0xYJW/iGeVdyh5i79rl69xvmQjvzsX7tK169eo5vXb/ACGFqeg/z89M2bXCsAIgBIRfMA5OmTp9S2VWs+ewUPgt7BhgTY+d6engTuCLgczb292eJfs6ZNqbl3Mw7DyibMQSfp7Hzo68M10D5WAziqnev09uaHE/YN8JDih3AzLy828PP6VaolVHwEoQ0DldA+PXuTvMJH3a4OQECTebPnmCMr4YAr2JGAxpA59elXr1/Tvfv3efvj7p07bC4aPtiKhmuDj2vscwrgJwM8PQiBPMe9u3e5PISP5XrlOvFCxsr/7VuDOKaoE/PXpGEjtgwqH02uAIjZKXZIpAIgGQcgIHz/fv1p9apAgqD+5g0beUtlh/FMGCyswN2A8UZYqdVz9HBCa6Wy5QnHIUydNIVlq2bPmMmyVePHjCNsUeOduHXrVoLF1Qb13ZkrOX3adH6+7J14ZwUgWPgsWLCAdu2CGq7BBgjeSxAqDQrakC4AgWVScKRgxwoC2pAb9PL0JJxlBnkdg9+EPJs0YevQ+Hbhvent5cV2eXCNMPJyWa0cynqyDZ/CBQvxHJnjUMpzpQCIEYBUrVTZLAdk4YKF/MGCwNs7ae/4rVFxEMJX+BDZ8pOtYsqTYC6MDxfqfG2mbjkON5P+o/f0yRNq386XZRCw/yo7VwcgeDAC5syVh8xh0FNsibDAaJocuTcCZpVLFi9Bpd1K8dYEeqoASNbNlwIg9gGQwFWreE9/QP8BNHjAQBqELcZ+/dlHeECfvmyxFGf2iPOuxCwuWbiIoBG4efNmPgxw1syZfCbQ/rD9hGMrIEMCGbcRI0bQuqAggtA9hDAhZ6IHM6JOW3xnBSAvX6bQ/PnzjXZAAEAMxsgePkikdes2sC0QPY1N6PHuHUUcCmcQB3s6EAzu0bUbdevalcO4xjZamZJu9NnHn7DG5jdffMkGG8HRhYHA7t2Qv5tWtgeuu3Slzp06seYTtnWsOQVAAECuXqOqFSvRlEmTTOiFM1n+/CM/edSvb3J6o0mmXHoBVii0MLD9A5kU4bBigC0FV3XMATEDQLZv204/fPsdHw+Ns0YuXrzIdglwINkF3Q/2ChAv+xcuXNDiRH7OoyuLNJSDRUhL+bR6RVnUzWVS2xVlUQ/agQVInDvj26YdHzg1acJElzVEltP3pgIg9gEQzBsWQ/IPiy5cwxdhMb/ywmnenLn8MZTjRL5Tp0+zdo24Fj6ACSzh5k0A8pJNsePsF6jdbtmyhU99huzgtKnTKXhbML8nBK0EXcFZFWGRZsm/ce06q7/n++BD3gHACewQI4DV57kWuMyW6rIUrwCIBQ4IjvHGgUiff5KPenXrTjtCQlgYigWjtgZT8JatLBAlfAhGQXhK+0F4igWoDHEiXfhaPrnM1q28d8Z1ivqRbqyHyxrjTeoxxoE9iR+srO7Yvp3PUoCJd6BVYeIdq4+WzVto94OtN6NWIJcHGIDMNeWAAEiWLVWG/uP//F/6+rMvWMgX567gvAn8Cvz+B/1l9BGPMNRz8UO6CAtflBNpKI9ymm+sQ8SJfKKcXK9IE3FyHtSH64J//sV9+ud//Be9/49/UUBAAFv9rF2jpkuaYs/pW0wBENsACN4dmX1/iPIAIBDGhnv29Bmr6cJyKmwc9evbl8ChxraOrJq9PWR7ngUg4Hzv3r2b3wV+fn40atQoNuswcvhwmjp1KiswmH2OjHu7gu5m8xgjcZAmrGyD8wHwgR/sE8HYYp1atdNwsdKry1KaAiBGDggstskckIkTJ7Iw588//Ejff/0NEx1qm/h99uln9AV++T6lzz/51BA2Xot4pPFPjpfKaekin/DRhr5OOU2E4Rvr4/zoC/om4vN9xibeoUWBMeBsANx0kA+ROSC23IiWbp7cGA+jYnPnmMqAhB8Op769e9OgAQNpYP/+hGPD+/XpY/Lrr8WJtL4k4oQP2xKpYZQXefto8UjHDw+WaV5je72N5XTpIq/wuW7Oayg3oG8/GjzQj3AEPbRl+vftyweuueJZMDl9XykAYjsA0c+V9j4RmkaGJbdBgJrD+hKGaxmAbNywkbwaN2HZJ8g/wWpnvg8/4vdwvz79+HwflMI2zOiRo/IkB0RQEdscsKqNH4RJr1+7xufiiHkQPvJzmC06G1GIsRI5j6gXx3r07tGT7VXh+4efACH4duX/7XeWyxH5tfp1dZqrWy6jAIiRAwIAImvB4DwKnBexceMm2rhhA2un4MHYuHEjsY+wuF6/QYqTw6Z5Id1tUlbUIfuo39gG9N7RtlwmtY4NLC1ummbanqgHR5rjIC+wQGfOmEEtW6RyQOSbwRXC4IDoAYgrjEs/hnFjxqgtGD1RHHStAIjtAAQfGEsfGREPsWoRtjRFAXOxBWPggMydM5d++eln+vGb7wwaZ999zytvCNaDG4jDCuG0LZg7htOSLdWdXryzyoCkNyZ9mqA9fG0uLFh2FmWPHTvG9nM+/fAj3nb58tPP6OvPPif4ACCfvP8BtWnVWmTn+RXtIFIOa5nMBBQAscABMUMrl4jKq0Kojpg8ed1g0FVJv1Y5v7mc1tLNlRFxrmaKXYwrN/gKgNgOQDBf6X1scI+bS9fufWOAOSBGAAKVTliaDt27j/bu3kNtWrZi7q5v27YULZlBwBYMNAvvKgCS7mNjjv6WCoi8sD9Vt1ZtKvRXAaM5iSIsT4iT1/ErkP9Ptuci6hHlxLWtvgIgQgZExwGxhYAQFDy4/wC9evnKJDtYYdFR0QS1TuHiY+NYcAfCg1BTg7182UHDJjoyiqZOmcp7eMgjH6AFmRSgdSEHAn/r5i1sJfPhg1TDaHKd5sIKgJijSsbjtBdoxos6pITSgnEIGc1WogCIbQDELPEsROo/UNrzYwzMmjmbjfKZKw6ZONgBgWVb2YETMnz4cFaTl+MzEs4LHBBz9EgzHzqOCM6RgQE/fMegGm34xbAfExNDcbFxfO6PubozEqcAiAAgrIZrqgVjjZBQDStaqAitX7feJCu2RVq3akXYR4ObPy+AbYHAZPfihYuod/ceLBh6IGw/pwPATJwwkc1HT508hQWLunTqzNcw3AN3YP8B8qjvTn369KHx48fT6FGjacTwETR50iQ2AsOZbPinAIh1IuGhg647hHllB6G4Xt17sEEePMAwklS7Vi1q5NGQ96sbezRkHfjWLVvSpYuX6MmTJ6z66163HjX28OB8jRp4sGQ5jDO9key3yO3YElYAxBYq2ZdHARDHAxB5JvDsaADEmBAcHEwNPTxo6JAhrPEFHz//wf680h41fASNHTWahvob4pHWsUNHtoMkH9got2NLOC8DED0IsYVe+jyYx7Szqc9l+VoBEAsyIJZJlpoybuxYFsyBJdQE6XTHFctXUP3adejF8+d06eJFcq9bn9Wkkp894zNkbt28yaa5cbYF3MH9+1kHfveu3QQDM5D0vnjhItvygHVBOJghxocOljwfPHxIbDr3/n26/+AB2wux9WZSAITJme4/GCnDXiesokKdWTio4pYoUpTOnDpNb9+9pXZt2rCmUUx0NIkfrAziADTMNUzj+7Tw4bkW6fCjo6LoxvXrZlnToi1rvgIg1ihkf7oCIFkLQMTMiHcWfLzzYEUT5vXxw7MGS8WwgYPTkPEeBaiH+jzejfhBQwZcEZTXAxrRhjU/LwMQ0EbMgUwnc3Hm8lrKJ9dlLawAiAkHZKJGL1uIO2H8BOrZtRuvaIHM37x+w+VXBwZS4wYevDUTER5ONapWp9jYWK1uBGC+FtoMcEGr11CTBh509rSB2yEy4nyZwMBAvsRHEZYAcSJvZpwCIJapJ+Y8ZGswNXJvwHudY0aP0VT/8AJkE/fnztHbd++og68vTZ8y1WKFACCdOnaiFcuWW8xjb4ICIPZSzno5BUAcA0CgKgpL0jg768GDB2xLCYAB8XqHLehnT59qefTpuMaZS7AMDM4yfghjwcb2RcwVsCEuLwIQ8Z6zgTxpspgray4uTUELEQqAGMFA5fIVNS0YWwkKDggOYIK8BkzaQmgKDgAErPbnycl0/959Zue716vPMiCQGYHhs+RnydqUwFBYE7DxG3jwFk10dDSrVckyIJD4btSgIW3etJlOHD9Ox48fZwNjQgALllltcQqAWKcSaNzRtz0tWrCQ6tWpS6H7DPOKlRmOg8fKDAAEFgSH+w/lVVhi4iN6ZPwJ8/c43K5zh458ZkXSoyROx8FZ2JrJzEsTI1AAxPo82ptDARDHABAY0YNlTN+27dhaJraV8cGBKQAciyAcTgmfNnUa4WwScIubeTej4UOH0ZXLVzgLQAa2sVs0b86WOmF9E/V27NCBcLCa/C4Vddrq50UAAtrgGwdAh1PUxbXwwY16/PgxPUpMNLzTHj3iA/+eJScbuE2SvIit30puxMw/BUCI2JhTreo1NAAiJsIMvUyixo4Zy6ej4uMyfsxYtoP/MuUlH8LUsEEDEnuTp0+f5n3MqlWqsk47tmzw8QKHQ7jo6Chq364dQR24WNFiDGh69+zFet3Ig5MLcYQyDPI0qFef6tWrRw3cG9DqwNUmJuJFfZb8GdNNDZFZyues8TDFvmBeQKa6DwDSyseHLl+8xB96SOHjJQhde+aAnD3HDyLmp1a16vxChXyP+MGADxzOi+nQzpc8GzaiaZOncDpO78Q5DEI+yN6Oop5qlauwPIq9deRUuVkzZ/F5RjnVvrV2FQBxDACBUH2DuvVo5bLlxlPCj7NZgUoVK7KJdny8YCCxfdt25F7PnSIiIpjbeOnSJWrdqjVh0QYrp3j2cP5Ll86duZ6jR46wLZD4uHjmJJvjqFibY5GeVwEIFsEjh4+goLVBvIUv6JHy4gV/v/wHDWYz9/iuYaENmUPI6WAuHOkUACFii26tmvswwTNCXACQgf0GMJLEx6Zunbp8GBMOXgIHBABERohY+WJLBocsVatSlYVMgTRll/jgIeGAu8mTJlOlChX5yHislqFy5tO8BZ0/ZzjhVi5jEASSYyyHcYIkDshzVefZuDHNmj4jU8MDAGnZwocuX75COECuRpWqFLR2Ld24foOqVqjIpwzj0DicndCyWXPavi2E7cRg3iGAHGlUFcTLs0P79oSVH7SWkL5h/XoK3RdqYibZns7CAJOHewOTlaQ99WRXGZk/BwCS6+5BqYPz583jQ7ayiza5sR0YofL3G8ScOnv7FxkRyYeYxcbEmFQBmx+lS5RkTuDKFStZvfPUyVMmeW7fuk2QkQMoAYcDRgTHjx1rkscRF3kVgKxasZJ++uFHqlyxksZpAj0fJyWxATK8/2D1G3an8Nuwbj0B8GkHcEpckMzMQ54GIOKdAwTdo1t3PlgHh5axE4kSdWUwgWgAkAF9+2urWRj+atKoMQ0ZNJi8m3hRyosUwnbK+nXrOCxVxdsn9evWo5joGNZwwYdL72Kioql82XKUlJhEu3buMmjF6OREUEbfL3094hrcGZg79m3XTkS5nA+OA8Yom2zG7hSm06qomnHOGYA09+HzWUAgGKTDVgy22sB1OA8OyNt3vE0DtWpLzrAF04kWL1psKYtd8QCkXbt2ZUus794aWKh2VZSNhWTagwUPMC2cYW7ElXnf1ntczieHzdVq8ohLL9TFixdT44aNzRXJM3EMQAYNzhQAiQiPYO0/qHPKbtL4CbwAA6Dv3LETA3SRLs8ZBOwhM/Lk8RM+JwbnIUGwH7Ii+AGY4FmAM5lLUZkNPjjLsJ587OgxG3JnTxbYQSlasBCtWb02Sxp8/uIFdWrfgQXoa9WsSZs3btLaAb379e7DpxBrkRYC8lxZyMLR6eUDAMGBgtp3N72KcjDtb1ndNj4S1SpXZWlrtMUvRemlJNqXiSkAiOBiQHcaD8mnH39CbXxaslDqtuBtVKZUaT6KWtQBf9eOnVSrRk3Wnlm0cCEDjePHTB+CdWuCWBMDZyPs3LGTAcjpU6e5GrkfWr3Gp1BOk8O3bt6imtVr8H6qVsbFAgsDFvAYwWKEw/i1l5MWSH/QACD4QJ4zcpvAduzZvQcBMJYpXYYunr+AiqmjbweaNDF9ANKpQydaMH9+mgbleUmTKEVw/433oSgDTYAqlauwjAqyinipWK4OLl6wkI9bF1uU3Fnp3hXjMeeLOHPjRpqcLufRxxsRqda0fGsMHTKUNc44UdxDujkQaa7q9+nRiwb7DaI3mQC4sBeBM0NgLGz16tW0ZvVqVpstV6o0zQ+YT+ByNKjvzqrqgo7m5hAyVeCAYLtzzMhRLB8ydLA/TZsyzS4bIPK9AG5k86bedOzoUdEF9uU8JgnZcAEAUqxQYVq7Zo3WmiP7g0Vx3dp1eOHbp3dv6tmtO714/oLbYgDStx/NnDFTa9uRAf38muOAOHKsjup7lgMQaKXgYQFrW2iz6Imlvx7iP4SFoTBpwkFF88fvvmf2OPb5gd579ejJL9xBfn5sCn3ggIHMghYnCiYkJPBKoHqVagxgcBQ15AuaeXnzlg7q3rJpMz+s4mRbs5Mkv0WNQ6szFgAAIABJREFUHZLz4Tj6CuXKE+xZCCenizhn9gE8ShQvbrKdppFFC6Q/Qpiu92riSWfOntUynjt7lv747Xf6K/+ffNKtgQPSgVq3bMXbavvDwghHh0Ng9fChwyyhDw5Iu9ZtaI50cqSgt/C1BmwMQGhs1MhRVLNGTbp29apWyt76tAqyMQDZJ4Dy/n378UrWUtNiTPBFGHlFWPjpxYk8wtfaMnLFtGtjYN3qtVSyaDGaPWu2lpSmrJbiugFHcECg+YetZsi7YZWLk2v9+g+gpUuW8PYLhE+xCMN7SXZ6ej978ow5IC28m9G6devY7hI+zttDQrRDNuXy6YX1de/ZvYc8GzWmo0fMAxB9/vTqdlQavkWF/vyLgtakckAc2Y9pU6awRiWEULG1UqVCRT65G/2HmADOoYIsYq+ePfnXvVs3Gj16NCXcSUgzRFv7JfIJX1QEAAIucp7ngIAgSxYv4YnfvHGzoE+6PvYtcdKq2BdDZnwgYOvh8KFDWvz9u/doy+YtLOk9bepUfgD37dtnQnSsBvBQTZ00hV9+ixYuIuyhCnfr1i3CoWomq0aRaIMPq6mFChRkLRsbsjt1lvkBAVS4QEFWb7ZnIFGwSDtpCsFei+xgRK5Pr95s3wMPEl6kHdt3YEFVSO2PGDachgz2pwnjx/PKDHM1Z/ZswrlCjnKwFQNTyEulbR39Q+2othxZj9zHN2/e0ubNm6lEseIM9LYFB5OtWlyiHuGjj3LY3LUt44DGBuYOpxKPHDacFw62lHOlPDIde3TvwdvLmRHwjIyIYFkaGFxkFdqnT+m1ZHwPWmMw+NetSzezZMRWXUhICG/DDBrox8YazWVEv+W+W8oj4uW869YGERQQYGdE7+R8+rSsvIb6Pk5iR9+Ec1RfYFG7RVNv8h80iO1JHT54iIoXLUYrl6/gpsBt79+7DzVt3IQWLlxICxcspAUB8ykoKCgN2HNEn/r362+yBeOIOgXNHOlnOQcEncUWCqztQdsE3An5YXHkYLKzLnBzAubO45c97Ja8NEox59aJdgRtIHsDVm2RAgV5mwLciow4oHHYLzDnwO0SteF+AfcKJ9LiB5AIH3FibxrsYxN5FHOV2hCHPuFlUKRwEbYOmZz8jEuZm0dzcTY0kS1Z5L4B6EHQsGSx4tTM04tmzZipyd1kR2egZggB4l7duxO2BaACunbtWpMjELKjH7mhDXle0B9sL4MLCC6F7JBPn1dOl8OR4RFGIVRTG0giD54RaISVditF4DDKDpzegn8VYAOOMGfgN2Aga2LIeRwRBvcFHBA8y8LZOj6R39E+awa186VJEzJmmduWfhzYv58K5f+TvJs2pd69ezMHv4xbKeraqTMviJ8mP2MOyIxp022pzuY85miKhTsE6QE09en6a5sbyqKM2QJA0HcIOeHEWKBCCJQCiEAYlG3hRxts4Wth4zX2OmOjYyiObebHUExMLAuXwkc8fmw/Py6OjsTFcxh1xsXGUnx8vFR3DFvRhLQx9ulEOyhraEPY5E+tF3kgyMrtGNtDP/Dw44Pl7elFRQsXIdxQWIXkFYcXCszaFylUmLe7wL2Iiog0zhHoKOYSvjGMeYrFHMTT0fgjhnMPjPOAuUTc8aPHeN5A4yNHjrAwMWR3IGiH38njJwx5MBexsQSVQa4LdYt5kn2+Z6R5NbmO4XsP9khwLxYrUpRVxYUKr/yQirDwnWWeIT916MBBGjZoMK9EIXQNi7+QpVq9KpCFA2H1FyAOIAwfLVvHiHxYweNFh/vh6uUrrGGG+6Jt6za8PVCuTFlehaMtcCFlJ7cjh+U8rhrGIXBl3EpT2L5QbYgZpUHE4XC+b2VOrlaZMXDv7l1q1cKH80EO4/mzZMK5Wd6eTcnf35/VPvFOhmD5yBEj9MUzdQ0OZ73adQgnS8NldHyZajydwrhfoSILNeQUo2xGOtltTsLzM8Tfn5p7NWVLs7AyC5tG2IapWLYcg0AI9mJrFItVvcsMfcyVhdVocEFjIqP1TeW666wFIFjSSnvCeGkdO3KU+vfpS7Vr1GTjU2XdShF+WCnhJ66Fz/FupQhoEj+RR+THnjfikR+Iv1zpMsxpATvdkL+MaZ0W2hDtwZfb0OLRv9Jl+If9VeznAZxkhpWa6+6G9Dok2BNE/MECuIA6IdisTBeNrmIO4YuweZqCzjxHmD8RNtZTzhhXomgxlh2Q56VsqdR7RsSLOdPmy3hPmLtGm3gx4CXp178/AeiIeZREa9O8OM097OmRLLvTzPUPGloAADDmhz3h9u18qU6NmiyzBJDQuFFjNmaF+xkAAucwTZsylc/jQRgvbGiSoSxWVIiDPFd3qEq38GH7ORXLlaOqFSsRzuyBpD9Y3DhQEsbhTJx0D5nE54ELMXR89GGaAPIb9m774gMHezXiPCuZfPI9AG0YzGlrn5Z8llJ7X1/CWUmpwv0vmFMSuGqVXAWH5XrSJFqJmAfOcNFiJifsZqY+K81lKBkLGXwncN6UoxzARu2aNWnF0mUmVSYnJ1OFMuV4kQruS5+evXhbWcskbgotIvMBgCyo4vu0aGGR25z5VhxXQ9YCEAv9BJEwIdevX6c9e/awMTDIbvBv717WbNm3J+M+VL+g34495/Jly1Lw1q0swIh4e+oTZVAe/QwLC+MzE7DH6gj2vwXyOE00z2NiIp8pARsrWN3hQwe6wRdhQceM+ljB+7ZpyysLyDOgDa5jr6H+jNaH/OgjbBScP3+e70GMIa84cDnwUgQwOHP6DOE0VLyI8ZGCDA5UN8EyxnlLlcpXoCIFCtEfP/3MxvtqVq3GcwHBOXw8IZcDQLJyxQo6fPgwm/rGh009F9bvpr179lLJ4iUY3CUnp25RWC9pyIF5BLCEb80BWMNk+507d/h+l4EAwrj/M/MM6L+heMZKFivBcnlyW9b6mV3pkCWcPHEScwj27t6bptn0+iynyeGw0FDmNJ0/dz5NfbCsDMUHWKjFthS27dnpCZemZMYjoFU4etQoKl64CHP8M15D9pfIEQCS1cOEcatGHh709KlhPz+r21P1Zx0FYCQJ+9SZMQttrXfyy8RaXldMx/jxoQIrGfJZABF4mc2YPoO8GjfmLUZ88PChEnn445cFL1FXpK+5MQWuCqSihQozWx5bWIIDZy6vM8QB4CxdvISBVbfOXXO1sDEERmHEEOIASxYv5gNInYHG6fXx6pUrNKBvPypRtDiFBG/Tsub2d5tLAhBovTR0b0CPHz/RJkIFnJMCY0aP5n1qIZ+RFaMQD6nws6KNnK5THpscTq9f0Hpq1rRpelm0NFvr1AqoAGvwwX5QjarVCIduwqov5Dpw6nNcrH0/yEeZlo1l+TgIn0K2CrJtnB4Xx7JUpnktt6mvF32EPN3u3btp/twAli+CLBW26uzdWsrOW+Lpkyc0fuw4BkwQCoY82N49e1iejOkv0Uc/dlxznDEPy7YdOcoyNvq8kE2EevzJEydZsxPanal59HNlmf76eUKbsAwNe1gw616ranVW8d2xY4dGRvmZlMNahlwQyFEAklVEgWEeD3d3ba/TEXSW+4qwfO2I+p29Dj1N9Nf2jg8ABOdVQI8ezhF0F3UI396+OUM5eYxyWE9LkSZ8pM+dM5etWYpxIk1Ol8NyHhFWvnUK3Lh2nbcEGjdsRNWrVmNDVlChberplfFfEy/WsNHKNvFii6lYjMEmRYN67iwfINLx4RVhaz7ycv4mhn6hjw0bePD2HIxv+Q30o0MHD1ofcA7n0DPtYKm1f79+bKsKMlE46gMWXJkeGKugqXHcgk6CdiZzJfIYy4m8MLSIwzZxzflFPnvm2FgGtqzq169PpUq68fYPDh28q9OsEqSWn1M5LNJz0s8xAAJCyMTQX2eGKIIDkqQ7D8beOkU/HdlHe/uSG8tZoougW2b6jD1USOoLwbnM1KUvq++3I/qrbyMnr8V4hI++yGFrfZs3d066AESUl+uUwyJd+WkpoKcT1PrBRofcE2wd2fMDAICxPkPZw3To4CHW2oNtG8jwQIAYHBakm+ZNvz3Ug3pRBmH5h5X9Ewe9Z9NSyfExgu7CFy0kP3vGnCdBf3mMhrEbaGSghaCHoJuB1iJNlAWdww8fponjxlPpkm50aP8BI+31dYl6bPfRRvihwwQDna8kGzBiPMKXxynCwhd5ctLPEQACAoifGLwjiZIVAETuryP7KsavfPMUGJsFHBC0JOZQ+HKc+Z44X6wYm96XR4I0S+nz5oID4qVlF/m0CAt0lNNV2DwFBC2Fbz6XY2JxzAQ0I2BwMStddowls/1HH0U/5XBm602vPB8PUrNWelkckqbn7ohK5fEiTlyL9Jz0cwSAZDUR1q5ebZQBMT0RNycJnRfazoobW8iAiC0YR9MxK/rs6D5mZX368cvXc+eAA5IKQCz1Qy5jKY+Kt40CmaGlKCt80SLkDsD6DwsNE1GZ+gjp69cqdaGAI8cYvHkLmyuQtZYAFiwBBlvJKMo7sq+2tu2ofDkGQBw1AHP1rF29hmVAHLUFY64NFZc9FMhqAJI9o3DOVvQyIM45CtVrDYCEpQIQRZXso8DWLWkBSPa1nrtbUgAkd89Pnu+dAiA5dwsoAJJztHdkywqAOJKaGa9LARDLNFMAxDJtVEouoIACIDk3CQqA5BztHdmyAiCOpGbG61IAxDLNFACxTBuVkgsooABIzk2CAiA5R3tHtqwAiCOpmfG6FACxTDMFQCzTRqXkAgooAJJzk6AASM7R3pEtKwDiSGpmvC4FQCzTTAEQy7RRKbmAAgqA5NwkKACSc7R3ZMsKgDiSmhmvSwEQyzRTAMQybVRKLqCAAiA5NwkKgOQc7R3ZsgIgjqRmxutSAMQyzZwfgAhlaGmMK5avoOpVq9KjpCQpNjXozHrTqaNwrpAlmluKF6Mb4u9PPbp1t2gJVS6vvxXkNFGf8lMpAHq943+pcXJo+tRp5F6vvhyVJvwu09YM0lSpIhxAAflZwPkvmEec6M1OP+dyZge0nReqsPhuMUPLDevXU7nSZcyeXmwme14gnzbGXAtArl+7TufOntM6KgIJCXfo0sVL9EYcRW1mBiMjImj6lKn03MJR1/LNI8LCRzt4YENDQ53+hEpBs5z2QVv83r55w3N38+ZNrUsi/uaNm3RLihcZsHrA2T4vnr/gKK4LIeO845ov0QaHiHC+w9atWzVjSyKPMTlvekbivHjxgk4dP0FJjx4xHQQASXmZQmfPnCH50L99e/fS7FmzNXrJdBRhQfV3b97Srp27+IAsrYAKZAkFcFrxuTNn6fat2yb1v333jq5evkp379zVngVkuHrlKs2ZNZvOnD5tyI974Z3hEeLbQlwbnyVkgon1nTt20vPnz03ayOsX2n1vpBXm4szpM5RwOyGVtkYiXTh/nnDy7pH4eJo4fgK9M36zDDTHBIinh+junTsUsi2EEhKM9fDigHO6NMlzLQCZMnkKH8wUFxNrMgErl68gv/796UVKikm8fIGjrVNepGgfIDnNYth4Q23buo1atvChVStXmkWsFsurBIsUEI/Zi+RkGjLYn+rVrUvXrl3T8r9Ifk4zpk3nsyq0SGPAcPz7K77Cwy9eACZvWKQa5y8iPJw8GzeheXPn6avK29fGdxnAX4UyZWnk8BEm9Ei4k0BtW7emY8eOcTyyg/Z4wcrO3CsReXAUe0OPhnTQCQ4kk8fjjOG7d+9Sjy7dyLdtO7p565Y2BMzDiGHDaXXgai0OgXdv39Grl6+0D6BJoriQJhZnmLRp1ZpBC96jyhkooL17JHBw7+5dNnMPLu3Dhw9MSNWjazfasmkzf0deppg+R/y+Mr6zHj54QF27dKFBA/3oxo0bWh1ye1qkiwVyLQDBCaj5PvyYmjbxNHkJTpk0mbybeFrkbmR2fgb5DaKeXbvTkyRlxj2ztNSXf/bsGbVr3Yb+4//+P5owbjxhNQ737Fkyn3g7yM9PXyTD11jp4aRKeSUvV5IXHmqz4zV+YC5fuUIfvvc+/fbLr8yxEHmvX7tG5UuXoQgr54VI3ylRlJ48fkId23egYUOHanEqkHUUALcQ78V//e8/CKegCpeSkkLt2rShGdOniyiLfnrPwZTJk6l1y1Z0+2YquLFYUR5LAN1k2t26dYvKlylLn+f7NM2ip26t2rR44SKrFAJnyq1YCebcWs3sYhlyLQAZ6j+EfFu3pSoVK9GSxUs0ss+cPoNaNW9BQJS3b92iwwcPEbgky5YsZcR+7MhRLe/169cpcFUgTRw/kVavCqTkZ8mc9ub1az75EKdDjhk9ho4dNZQ5c+YMf7xaeHnT/tAwkxtNq1QF7KYAAEgbn1bUuoUP70nv27uP6wKbF/M9fOgwvgZLE6dSxkRF0/Qp02jxosUkb9u8evWK9u/fT+PGjKMZU6fTlctXuNzly5epa+cuVLt6DQoJCUnTT/nFkSbRBSPEeGXQcP78eeaAtG/bjryaNCG8QOFwLHy1ylWY5riOioik40eP0eZNm2natGm0bWswAw2kXb12jU9HPXHsOC1ZvJhWLFtODeu7U9uWrQgHnymXtRS4cf06de/SlRp7NKQG9d0pMjySGwQHpHPHjhQwZy6D+yNx8RQbHUM7QrbTqJGj+F347OlTrXOJiYmEgzuRtnH9Bj5VFfdDu7Ztud6tW7YSnjXlDBTQnicJhFy9epXatmpNPt7NmLMbHxevkatRAw9avnQZX79985aiIiNpypQpNGL4cH5+kIBF2PyAACqY/0/mIj58+FArnxcCuRaADPYbROPHjmMEWaVSZcKLEw7ovmXzFsxWxAesWpWqfNASzn/BqhqTfvTIEXqYmEhdu3Slvr37MBusg297Gj58OHNTIsMjqE6t2nxzBMyZR+713VlA6/Tp01S3Tl2qXbMWrVsbpACIg58AAJBmXk0J22iTJ02mxg0bEV6CYPX7DxqsARA8tD999z3PHV6M4IZ5NGhASUlJPCe4B9q0aUObNmzkrQSc9Hn61Cm6dOkStWrhQ2XdStGiRaYrD/HycPCQcn11GLcMQACya9eoSfv27KWGHh40ftw4HsOtGzepWqXKDMwR0a5NW8JzN27MWNq4YSM18mhI48aOY/pv376d6tetRzWr12CW//y58/i497q161BEeESup4mzd/Da1WvU0bc9rQ1czcAd3Ao8G3CdOnaihfMX0qNHj6h/334s/Dh29BhaH7SOvD2bUr/efenpk6eED12H9u35uVsTuJo86tWn0SNHsWxJs6beVLliJVq4YIEJ99nZ6ZYV/b9y5QpvV4G+Pbp3Z/qDEwWHbxHAOZ5BpIMzi3dWAJ6X6jUoaG0QvX71miaMH0+///wL0//2bVO5nqzoc26qM9cCEL8BA/nld+/uPWbvAkjAzZwxk2U08FaF0E7BvwrQ7t27GamDZYiHcf68AGYlY5KxcsMK+/KVyxQYGMgP3phRo1lOAHupKS9eMCt67969LHTqN3Ag78U9SkzMTfPkEn159vQZNfX0YuCHveXqVasx6scqYPiQoTRy2HAe55xZs6jQXwUoJjqGBVdv3rhBZdxK0aGDh+jMqdNUDx+6w+G8zXL/3n1q5dOSpk+bxkAGXC3fNm35BYzKZOAhh12CoFYGYTJeIwoBAKlUvgILMELAt2qlynQ8/gglPnjIACQu1iBzBcABOQCcQozVW8C8AH5mwHUMCd5Gpd1K0bbgbTwHCbcSqFvnLrwA0MuMWOmiSraDApCfwj2+cd0Gunb1KtWoVp0/cKgKHMCFCxYysG/e1JtaNmvOGmQ4ifXkiRNUuUIlioqMYjkRyEph3jG/G9et58XBxQsXCVxm1HPr5i2T58eOrrpUERnIi4EBgACwhe0Lpfj4I1S9SlXaunkLJ4NDtWL5cgZxgatWMZcJ4ATgD/TFD88oFswVy5ans6fP8DfI5LkVDbmon3sByEA/GjViJJMd2ypYjYFzsWjBQl7lQrBqe0gIPzR4KcI9ffKE+vXpS1AfhFQywAg4HUOHDqVtwcF0xyhhvH1bCJUvW46BzKyZM3kLB6tzOGwFQEBPoFiOVP8cQgHQuGkTL55DVLh+3XqqW7MW4aM3esRIGjHMsAUzfepUatOyFQvOIR9ekLWqVacd23cwN6tU8RIssIp5njdnLvk0b0HDhgzlj+GSRYupS8dODEZEp/FA56WHWozbxH9reH1C06Vi+QqE7SpoJYGV37Nbd9ZOAmckLi6OX4JtW7ehpUtStz43b97MzwtYznh+8NLF4gAu6VES9erRkz9cJm2qiyyhgAAgK1es5PoXBMwnj/ruvP3Vu2cvBiAP7j8gCEHOnDHDpA9YhQOkY0EHOy+yg/A+HATCMZ9JiebNGMhl8lJYBiDifXL1yhUWQgVXEG7KpEnUpGEjgnBqC+9mtHTpUo4H6ECexYsX85YmOEx9evXm99K5s2cZGEK2J6+5XA9AwJ4H2Jg8aRKzHYf5D2FBRqic7QgJIZ9mzQmyHnBQLcSDBZUnuDt37tDqwEDq1q0bI9M2Pi1JsLiwGpg0cSK1aNacSpd0448iVm+QQ8BPUz+T7zquVf2zlwICgIC1KxxWAfjYDejbj0YaAScE6xAnJMchwQ9uFtQCwS4uX64cbdq0iQJXBxK23iAjtHPnTt5PXTh/AXXu0FEBSEFgnQ8OSIVy5em8UcUd8k8A6RPGjmPOUnx8PAMTrLCXLTPsX6OKDRs2MKcJwqoAINAUu5Nwh2vHy7VX9x4M/HXNqcssoAC2YDA/K1es4NpfpqTwewxcY9/WbVgeDuqf0MyYM3uOSQ/A9QCHuFuXrgzeRSLAx7179/gZArDv2b0HPXyQt+QRBC0y4kP+DGAcnHY4qNF6NvGkWdOmk4d7A+a6Q44G22C1a9XmbczQffsIIgGYH2jDQAgViwLMa15zuR6ACE4EhBA7tO9A3339DfXo1o2ws71j2zZGmQKAYN8TqBLbNJDnWBcUpM0ntmeKFS3GL1Ks5o4eSxVWnTp5Mq8g8ABie0YBEI1sDg1ACBhbMDIAAdsR2ysVypbjPVA0iO0UcECECuCrlJe8XQO7FAcPHOQPJmRHhFswfwGtX7+eV+54uXbu2EkBEEEcna8HIEjGChog/Kcff+RVNDgjkAFZZly9Ic+G9QKAXOctGMhhCZsFCoDoiJzFl9cBQNq2IxhcFC46KorKlSlLJYoU5S3OxIeJnAdyIMJhtQ5OcvihwyywD/Av3P6w/dSlc2femps7ew5zQDCvyqVPAT0AQe49u/cwZ/e7b74lCPLCvhFAP4S22b0jFisAtwru9MlTVKlCRRPTBIaMrv8/1wIQoEMgeqGqianYu2cPq55hawUckM0bN5J73Xq8D4p0fJSgDjh54iSKi41j4VJs42zetImmTJzErPpz587xBw4CeFhBQAq8Xeu2NG3KVP5oYQsHv+Rkg8aMiQSf698PWTpCCL9BwBfbXrID1+L9f/6LhU0RD+Fj7J8KLhQ4ICWLl2CZn8dJj6lPz17k264drVmzhqZOmcrcrV27dnGVU6dMoebezU3uG7mtvB4+efIkFSxQgGVpBC0eJT4in2Yt6P/87f+jEydOMJDzbNSEAgICRBbmJDZs4EFXLl+mzRs3sZaE0Ex6cO8BAxYIrCqX9RS4cukKy+MAeMtu1PAR9PH7H9CsGTNZKLVT+w5UtGAhmjp5Ks8fQOWgAQPp0aMkunTxInO88H4El7ihuwf5+w0iaAhCmB8AB/JVyqWlgNh+QcpFIx0hLC+7gf0H0P/8/b9o7Zq19DgpiZo3a8bvLQieYusLQBDPExbG4IAUKlCQt0XlOvJCONcCEFhVhGAPtmCEwwcJarWbNm5i1hUspQatNUwwbooXz5+zyhlUOOFgFAnaNAP6D6CRI0bQcaORJeTDKhzaFf369mM1KCFFvmfXbtq7Z69SPxNEd6CPLS5smcQaBR1F1bDZMWvmLNbMQFz4oXCC+WIx92APQ91TaEJh1QFbBeB29evbl3bt2KnJeERFR9OWzVu0sqKNvO6Llya4fAsWLKAH900/LvFxcayujm1LCCxu2riRjhw5opHt1MmTLLODbc7z587RuqB1rE2BDADrIdu2UbgVGyJaZSqQKQpA5gbaFJgfWccJBq3mzZpN0dHRvH2C5wMqopMmTqIBffvTzGnTKVHiauA9B+0zrMSxaBNbaocPhzPYfy4WYZnqrWsXxqIX36CzZ86aDBTCwXNmz6YTxw1cD1hDHTpkCA0fNow5V9BCGz1iFJ06eYpFByA4DA5+XnO5FoBkdCLEC1aUk68hyS+c/MAiTkntC8pkry/Pj9yypXg5jwgL8+ziWvmWKZARulquRaXkNgpYmtd79+6znMcio7wV1D2F05eRucz6NFFG+QYK2EIfW/KgNphmF4usvErfXAlAbJ1AnkSjOVt92NyEol7IlFqq31K8ubpUXMYpIOgrfHM1sMwv5lRnv0LOq+SCZWpYDqdHZ8ulzKfIdZl7huR08zWoWEdTADQXdOcwGjBqO929d48FHSG8n1En6sxoOZU/lQKZoWFmyqb2wDlCuRKA2EK6jE6SyC98q22or5xVEjkkg0Rn/rABIhoCJtW/lYRxuIhUTstoLk5LVIH0KGDzcwEALyrSAiJC+TlJAX5GjHPy8tUrPszzxvXUs0Vs6VtG7gNb6lN5zFPAHJ21x0kLmC/rSrFOC0DSmwTIBPTq0YOeGm17pJdXpeVuCkBWZ/q06STstOTu3rpW7yAw59d/gGsNKg+OBvIJEIrUy17lQVLkyJD3h4WxbSLIVilnSgGXBCCrVqykWjVq0COjeWLTIasrZ6IADjjr3aMnW3N0pn67Ql9nTJ9BDd0buMJQ8vQYoBEImxSw9qxc9lNg44YNVLFceXW6uhnSuyQAgaaFh7s7JT1WJ9qamXOnihozejSv3mRBYqcagBN3FuqCOLtHOeemwJH4I3xeVlhYmHMPxEl7jyMPalWvoQCImfmkMPjgAAAgAElEQVRTAMQMUVRU7qGAAiA5NxcKgOQc7R3ZsgIgjqRmxutSAMQyzRQAsUwblZILKKAASM5NggIgOUd7R7asAIgjqZnxuhQAsUwzBUAs00al5AIKKACSc5OgAEjO0d6RLSsA4khqZrwuBUAs00wBEMu0USm5gAIKgOTcJCgAknO0d2TLCoA4kpoZr0sBEMs0c0kAsmb1apb6fqyEUC3PvJOkKACScxM1b/YcaubllXMdyOMtm7MVYQtJ9OU0ABJqEELVp9tSp8pjPwW2bt7Cp3krNdy0NHRRAAItmAaEg8uUy3oKwG6ObDtHfsHJ8fb0BMdY48yeJ48lc/qS9Vt76nTFMjLNHTU+BiCeCoA4ip4ZqSez8wmbz+LZ0wCIUQtGPK+ZbSMj43G2vI6kDU7ErVWjJr19Y2oHxJFtOBt9RX9dGoDIHy0xYOU7FwXGjB7Darg4SVe57KUAAIi3AiDZS3RHtKYD6EeNarj7w/anrV2glLQpKsZBFAjespU5IO+MZvIdVK1LVOOSACQoKIiPOn72VH20nP0uHTtmLPkNGMgnrjr7WJyt//PnBZB3U2UHxNnmTd/f40ePUbOm3nTgwAF9krrOBgpsC97GHJBsaMrpmvhb6L595Dq/UIqKjOJjjyuUKUvbtgbTwf0HKHRfqAuNMRfPV2gowdjRoUOH2A8NzRzdDx86RL5t27ERJRz3jrkM47lEvZmr21XueQM9DPcEwjD7DLrtDw2jfXY+25hD1IVj2qtWrkIR4eGEuUSc3J6r0DBXjSMUcxlKB8L206EDBw303ps6v+n1Ncw432Ke4KMOAEnM47QpUynicDiF7t2nm0f1LIGu+4x0Ad3wruFvRxpa2f7+DTO+D8eMGk1uJUrSvj17eV75GUK9exXd/1ampBu5yq+0WykqU6o0lSxajIoWLESlS7oRxyHehcaZ68bi5kZl3EpRWbdS5Fa8BP31R34qVbyEFmd3f91KUbEiRal44SJUyjiXaANt8byqOWWagzb44d4vXrgo5f/1N34GypUqbd9972Z4bkrgOSpUmGkNeoP2/EwputtHVxvoBvpiHkH3Qn/+xc8RaM/za6U8Pxsl3XieDM+JG5UtVZpKlSjJ9bkVK07inhB5+dnE82ul7ryQLt4xGGuRAgWp8F8FUt819n5D3NwIdC9SsBDPi3h3ac9sHqf736KioshVfjFR0RQVGUmxMTEUFxtLhusoio50nTHmxrmKjo6mqOhowpkT64PWMWhYtzaI4uPjidPsvMcio6K0uYzmuTXMJeZTzanhnmZaRBnoceLYcZo6eQoDkBVLltKR+Hj7n+3IKIqLieUfuIr4GdqKpmg75zM33ru5rU+g7fFjx2jQQD9q1LAhbd8WwnOA+9/aPY9njedIzBWeS9wbeDZjYikmOka7Npcvt9Eiu/sD2sdGxzDno32btoRffFw8Me3x/rHzvo8xvhs1mou5VN8lckkZEKfbCHOhDl+8cJEqVahIFy5ccKFROc9Qtodsp/+/va+Ajmpp1v3Xem/d++579/7HgAMHOc6Bg7tLcIJDcAgOAYIHd3cLwYO7u7v7wV2DS4KT4PXWVzO107OzJ5kkM0km2Z016d4t1d3Vu3tXV1dX5cmVmyB4aDr3xcCsWbPIt60vPX361H074aYt//DhAw0eOIgGDRjopj1wn2abBIj7jJVbtPTq1atUyqMEXb1yxS3am9gauXHDRiZAwAE0nftiYOaMmeTbui09evjIfTvhpi0PDQulgf0H0IB+/d20B+7TbJMAcZ+xcouWmgRI/A6TSYDEL/6dVbtJgDgLk9GHExpqEiDRx1rMSpgESMzwZpaygwGTALGDmDiKNgmQOEK0i6sxCRAXIzgS8CYBEglynJxkEiBORmhSB2cSIPH7BpgESPzi31m1mwSIszAZfTgmARJ9nMW0hEmAxBRzZjlDDJgEiCFa4izSJEDiDNUurcgkQFyK3kiBmwRIpOhxaqJJgDgVnSYwkwCJ33fAJEDiF//Oqt0kQJyFyejDMQmQ6OMspiVMAiSmmDPLGWLAJEAM0RJnkSYBEmeodmlFJgHiUvRGCtwkQCJFj1MTTQLEqehMWsDEmqP46P21K1eppEcJuqJcw5V0+BK2h6mo0u2VS+zx9vCij9+wYQNfwz15IvwaruQRPzJcOZInsvJmmi0GYorPwBmB1LZ1G3r48KEtQN2TEXyjOF2xJPeo4kQNGyECBAiu4PY3r+EaocepcSYB4lR0Jh5gRpPUkbgrl6+QR7HidPnyZYeRYQTX4cKJJKPgQHx73YoqHaa/c2bPwRpkVRhRlVPzmmHnYEBwrvoSjqqGGdNmUBuf1pHqAQEsPTx5Fh/1GOWLqv7Elq7iw6hvajoIkP59+1Hf3n20rJIuviTonyXe9B3DgEmAOIanJJPL3oSyF69HDDggZUqWtuGA6POYzxExAPw6iuOIpcNjYIAR9nNUDkh4qhmKTwwYja9RHNoYODOQ2rXxjZIAic/+uHvd9ubcu3fvWAvqgP4D7HZRP276Z7sFzQQbDJgEiA06zAfBwJcvX+nL58/yaPNx/PTpE3358sUwLeRZMM2bO4+ePXumpSPg6AR98uQJYQFwNL9NJYnkQfr+WcG/2jXEq/hX065dvUYzpk2nB/cfqNE2YYGPSDX85s0bVv1tD7YNEPMhUgwArzEZPwH6z6lTtGnjRnrz+rVE2fXVMVQzBT97RiEhIWpUkgnrcS84wrutT9Mj5ePHj5rlZ0lDeZTF2iewxFfzSBi+Pl1NM8MWDJgEiPkmGGLg9q1bNHzIUDbrrmbARypgUgAF3QlSox0KY0Lam5SAGxgYSKNHjaI7d+44BC8xZRK8iI9FcOyYMbRo/gKbboaFhdGc2XPopKJqXcqIb1PA+iBpel/ywnYMbF+sXbuWPn76JNGmH0MMYJwgSDp39hyCbRHVLV60iPbs2a1GRRmWcZOM8iy+xMP/+Okj7dq+kw3aHT58WE1KMuGdO3awHMfDB7YyNEePHKU5c+ZqeDDCn5ZoDXy1+gcPHqSVK1bSaytRiLL2ytuL18NO6s8mAZLU3wBd/2XiHDxwgFL9mJI8ihaj+/fuabnAocifNx8dOeTche3ixYtUIF9+WrliBb19+1arL6kEBO/S3/dh7+mvP9PTz2nT0elT/0g0vXrxkiqU96S5yiKqJcYi0LljR2rUwJuNCOrbEguwSbboq5cvqXTJUpTmp9SEm0mqq1u7Do0YNlyNijIcnTEJDg4m7/oNqG+fvknWmN3QwUPoX//6F40eMZK5FoLg6VOnUaUKleQxWr7/RH9q0aw5PXpk2ueJFuIiyWwSIJEgJykmfSULvX9g7z6qUaUq5c6Rk4YMHkyh794xOmCdE9ZuTxw7rqHnzZu3dPjQoQi7chASYWGh9P79ezp79iw9emyZuM+fP6ejR48SiBlxW7ZsoeJFi9Hli5fos3K8I+lJwVc/MmGhYYwPGPZr0qgxvXr1ilGA3VctLy9avHCRhpLXr17TmdNnCFegBQZ23S9fvuTnBw8e0Pnz57X8Fy5coHPnzmmsaOzW69WtR4P6DyTUa7rYY+DFixfUrElT8ihSlGpUrUZBQeEcw6ZNmtC4MWNtKsF47N+/n8AJhMM4Yt4AjhwZwMeYYrzEvQsNJXA5MPbizp87TzVreNGyJUvp08ekyc0aOWw45cuZi0oV96A9e/YIamjOrNlUu2YtfgZ+gU8cq7D7ShTy/LkNfh8/fkzHjx0jbAhmB86i9r7tCHEfPn7go2KUvXDxAt29e5dBYM07duwY3VM2bRbg5n8jDJgEiBFWknKcld+4e+culsIfP3YcVapQkXbv2slYefrsGZUuUZJOHj/Bz1s3b6F2bdrSyGHDyKdFS+ru11WT/1i2dCm1a9OGevXsRb169qSWzZvT8KFDeffXvVs3ali/AR07epTevnnLO4sMf6annt170M1bt5LkCOCjIwQEFrLKFSpS4MyZVLliJZoVGMg4sRAgNWnxosX8fHD/fvL1aU2D+g+gDu3a0+BBg3hhvHXrFg0aMIDHcMjgIeTTshWPzdjRYwjCdU0bN+EyOOrZtXMXZc+SlQlLcKC0BTlJjoJzOg3ZC1yjxfzBez5i6DANcLPGTTgeEbdu3iS/Tp15rOCD2Dx08BDnPXL4CI+nXMUFwT540GDCUQDclk2bqGWz5jSof3+ee/4TJjKhOmH8BN441K1Zmw7sP8B5k9o/vOPduvhR967dCPiWYxMmQGpZCBAQbuCUyHHy50+fqUvnzrw5Ar7WrF5N9evV46PJoYOGUPWq1ahLp868vuGIp2O79tSjaze+MdOsaVPeqI0cMZLXurp16tDmDRuSGtqj3V+TAIk2ypJGgV07d5J3Q2+6fOkyjRw+ghdG7MZevX5FpT1K0NkzZ3gn0MG3HeGj9ujBQ7pw/gITJ8uWLuMPKUxa58qWnXAzA3pB8IHMmS07bd60ma5fu0Yd2vpS1y5+vNNbuWw5Fc5fgHbu3KntApMGpsN7KcQHYkCAVChbjg4fPsLnzuXKlKUb16+zPEFNLy9asmQJF2zcqBGfdUNmBwsqCDsQh1cvX6FC+QuQT6tWhOOtg/sPUM4sWalj+w507do1Wrd2LVX2rMDEBz5wNavXoE7tO9Ddu0F2BVzDW2qGosJASHAwc0CAZxB4nmXL0dEjR7gYPogTx41nPE+dMoUJlTu3bjMx0sHXl1q38uG0TRs3Ua0aXnTz+g0uF3TnDtWu4cXzCQRO0yZN2Wz8vbt3eZcOIhOcEBD1NSpXoUnjJ9pwGaNqc2JK79+vH29msC5Vq1yFZs+ezd2bN2euxgFZv3Yt1alZiy5dvMRpILyLFy5CO7ZvZ46VZ7nyNGmiP92+dZsO7NtP5UuXoeZNmhI4uIHTZ1C2TJlpycJFdPXKVRoyaDBlTP8XLV2ylG5cv0G9e/aiFk2bETZsprOPAZMAsY+bJJkiH0Esmti5gXCANH3FcuVp2eIlPPnKlSpNJ44fJ+yewXp8+uQp3bp5i44dPUZlSpWmwBkzCbuJUSNGEggUcQH+k6hBvXqaUB528djxYeLjg1m+TFl6/OixZE+SvuAfBEi50mXoyOHD9OrlK/7YDOjfn3FXt3ZtWrrYQoB416/PxyfbtmylJ48f8+4Mt4jOnTnLH6udOyycq69fvlKZkqVoy+bNjFeMWavmLVigFRG+bdrQuNG2xwJJcgCc1GkmEBo3oVUrV/IRCnbOICwwvq1btqLx1iMYcDVwY+nJo8d07uxZ3lU3buhNXz5/4Q8h5iC4WXBg6zdu4E3btm6lF8+fU4N69XmO7tm9m7mIOGrD0RtuoDVt1Ji2bLKMtZO65FZgBvTrR106duI2Y53x9PSku3eCaNGChVSnVm2Oxy2jxt6NCLqL4LAOYZ3bvm0bbVi/nqpVqaodfyF9YP/+PA+DQ4Jpzqw5XFYEjMEtqeRZgV6+eMGwwBmuX7ce3b59m5/Nf8YYMAkQY7wkydgvVvkPdH7Prl3UqH4Dlt3A84qly6h6laq0b+8+qlCuPP1z8hRPzuVLlxF255hswwYPYS7GgrnzeDKPGTOGevXoqeFywrjxfAwDwgVu0cKF1LxpMyZksPiWLVWasBM0nYUDAnzI+TVkZipXrEiLFi5ilvKSRRYZkOtXr7HCJBArJYsVJxApkBc5d/YceddvSPv37Wd0QrkS8uzdazkPv3/vPh/L4Mo0HI7P1GMCcwxihwFwQHDMJYTipQsXqUrlyrRm1Wrybd2G/MdPYGLk7OkzTERUqVSZ+vXpS15Vq1GrFi1ZDmrH9h3k3aChRoDcv3+fGjdoSOvXrefGXTp/gTp36EilS5WisqVL0/ChwwjjDCHJRg0a0rq16zif3OKIXY/cq7QQIF++Wq7O+vr6UvcufjRz2gyqW6cud0YIEFGaiGu2ICJApC+Yv4DqWgkV6fn0adOonW87FuwFJ8W3TVvm3iIdx83gIooMD2Bj/QTXynT2MWASIPZxk6RTNALkzFnGw4f3H5ibAYKhWKEiBH0TuAnjWaYsC89h4XsfFka1a9VmYS3oEBkzajSfkQoiQYA0b9yUPrx/z1GY5EKAnD1jIUDkPFbKJFX/7Zs3TDAIAQI8jBk5ivChgmCq7KzBgcIuLDQsjA7u20+VynsyOxi75oYNGtLePXsZheCKgMOEIy443GzCh27+vPn8jF05BPdM5xwMgAMCIdQlVlkdQIV+FnD8ihYsxCx8jEktr5o0JWAyH7lhBz5h/Hhq6t2IG4EPYf06dQmcDTjMjSoVK9HGDRtYzufRw4csMAn5hj179/JGYMaMGcyVRD1CgHDhJPZPCBAR4IUQfNmSpahB3Xq8WQI61q9bx4QauLdwGDPkgfwbZDxAjHz8YNksIX3MqFFMqIPDNHfOHJavEoFgbMS8qlXXhMU3bdjAsE0ChFFr959JgNhFTdJO2LFtO58//6NcAb1x7Trlyp6D/vztd5bh2L9vH3kUKUYHDxwk7M62bdlCBfLmYwE7SI1jRw25AnGjR46khnXrabuGObNnMxsZHJF//vmHF2bIMpiO6M3rN1S0UGHatWuXhg58iHBbBdcLN6xbR28gqFqxEi2cN5/wMcJZdMuWLWnsuHEEzgh2ZLut5fGxK1a4CG3fup3hQW4A7OdZgbP4uYl3Ixo8YKAmBKtVagZihAFchW1Qpy4tsBJ4AIJjNahX/4//9b/5mBJjgivV06dMZY2nZ86cYYKjjldNev3qFR9zIh3Ha5gXIOAzZ8pE27dvp0uXLvFOHtexnzx+Qjdv3CBc74Vs0N2gu3zMsGrFyvC2JzE2CITZ27ZpQ58UZX44Gv73//tvqlqpMuNlP276Va5Ca1etYd1DEN7N+Gd62r17N69nOKrB1VvoJYJiOMhkgdOLsYWmWhCYQoDgVhrkfCAnB7d2zRqq7VWT5UfCB8EM6TFgEiB6jJjPjIETJ06wdDc4HaqbGjCZ2cI3btzgc2gIqIK9OXzYcBo2ZAh1ateeunXtxsJvSxYvZiEuKY/nwQMHaTIgEEbFM3Z+EErFbRrzjr0FW/g4QUhXVTiGFFxXxjVoLJ5wa1atIp8WLahf7z585t2zZ096/NTyQQJL/9SpU5wPVw7btfWl48ct16chewCW/eZNmzgdt5PAVk5i3ynuuyv+4Xon3u3t2ywEn9QBYr1mdS9as3oVE3urV2L8WvLxJRT/9enRkz9sR44e5SIQbgSnCkriQLxAkPvQIcstGRA3EGgF4YijGNgvQb3Pg0M4vG+vhfsldSclH9ymcWPH2chwgHAA0d2zRw9GRei7UOb64agMt4twWw9EI9Y+uEMHD1KL5i2od49ePHdYeHj8eCYyYPRx5IgR2lqG4zLcAJQjGIxz/z79ojQmmJTGxKivJgFihBUzjrkUz0NCWD5DRcfXz1/o2dNn2sT7+uULnT59ms5fsOiZwFENPppv373jHd/LFy+14q9fv6HnIc+1Xfa7t+8sz9De+PEjPXv61GbB0AomoYAIocIPfvJU4xYJCr4g/lkws+AlLuR5CB+DnTp5ioUXEf/+w3sKCXlOGA84wAN+ZccG1jQEGd9Zlb4hDH0iJgEiWI2dD3kCzB/Rn6NCex783EbFOrgb0B0RZj2avHD+vKZX4vOnT6zDBdwR6PQAgYHjTnF4F3bv2aMRmojH2Kp1J8UxhRyUuvYIvsCFClbU0+OoGDpYMHfgXj5/QWEKfgEHN2BwTAOCBfgHfgEHc0bmKzYMMEMhz6FhoTwG2FyZzj4GTALEPm7MFBMDJgZMDJgYMDFgYsBFGDAJEBchNqmCBcWPnYFJ+cfdGyC7LtSIXfKrVy8jcK7irjVmTc7AADiC2H2b88gZ2HQcBuYSfhAChzp907kWAyYB4lr8Jjno94Lu8nm0qCZOcgiI5w5DcRzkBqB8zHTuiwHc2oBW2+vXr7tvJ9y05SD+pk2ewgr+3LQLbtNskwBxm6Fyj4bClguM1UFK33RxhwHhgkBAESqjYZvHdO6LgT279rAiLBEidt+euF/LIbANHR8VPSu4X+PdrMUmAeJmA5bQm3vtylUq6VGCNagm9LYmxvZBmBFXBaGO23Tui4ED+/dTvTp1CcKn4oTIlGfTdw0GQIDALg9MHpjOtRgwCRDX4jfJQYcuCiZArOqNzUUzbl4BwTMIDyivMgmQuMG7q2rBzQs9AeKquky4thgAAQLV+SYBYosXVzyZBIgrsJoUYVrv+oEAgZ4K2JAxXdxhIJwAOcbaHo8eMTkgcYd959cErbZQ2gdV7aaLGwzIHIISRb/OXVhLrdQsafJs+s7BgEmAOAePJhQrBmCNE6rCr5oESLy8E+YRTLyg3emV4ggGR2nqEYzTKzEBGmIAHJCunbtQbfMIxhA/zow0CRBnYtOExebATQIk/l4EkwCJP9w7s2aTAHEmNqMHyyRAooev2OQ2CZDYYM8sGwEDJgckAkriNMIkQOIU3S6rzCRAXIbaKAGbBEiUKHJaBpMAcRoqTUDAgEmAxO97YBIg8Yt/Z9VuEiDOwmT04ZgESPRxFtMSJgESU8yZ5QwxYBIghmiJs0iTAIkzVLu0IpMAcSl6IwVuEiCRosepiSYB4lR0msBMAiR+3wGTAIlf/DurdpMAcRYmow/HJECij7OYljAJkJhizixniAGTADFES5xFmgRInKHapRWZBIhL0RspcJMAiRQ9Tk00CRCnojPhAlPvsathZ7f42lXna0KV9up9tF3ipB/6Z4mPDz8+2uIqAiSqvkSVHh/4d1ad0jfxAVfC4jurLoGzf99+ql/HxXpAoLtHftaKI/THqt9H2hUffoQ2ubgRIEBYE2oN52hCjar9ki6+i7uXoMCbBEiCGg7XNCYuX+xbt25RqVKl6ObNm67pjBWq0boYl/2MSefion2wHdKgXn06dfJkTJoYrTJx0Z9oNcgFmY36aBTn7KqPHD5MDeo1oIsX4s6ooPRLfGf3yV3gof/d/LpSLa9acd5kwb34cd6AOK7QJEDiGOFxWZ3+JQZlHxwcTE+ePKGnT57S06dP6SnC8J30w8JZuGAhNoYWa5ho45On9OSxpY0fPnzQ0KcSIPp+apniOOBoOz5++EghISGMe8tYxHwMtLG0juPWLVvYGN3WzVucM6ZWuBiDZ8+e0bt372yw6mifbQq56YNRX9+HhVFIcAg9efzY8q4+eWKZX7GcT+vXrqPqVarSnl27tXHksY4pXMwlzCOeU5axDAsLizASRn2MkCmOIqJqy+fPn+nFixeWNcy6VmjrWkzwBBhPn9K9e/eodSsfqlyhkvNwb20PxvDZ02f06tUrjYsWR+hMkNWYBEiCHBbnNurNmze0d+9e6tWzFzWsV5+aNGqs/Rp7N9LCanx0wk0bNyH8UKZu7TqUN3ceqlOrNjVr0jRWsAUm2gitkIMGDKR9e/ZqH0EsULJIie9czMUMmtoWNfzi+XPavXs394Nx5t2ImmEsnDAGwBHwXbN6DSpSsBD7scG/int5FxrWb0CdOnSk5cuX04MHD2KGHDcqpY6dvtnBz57R5o2bqFePnvyOezdoqL3rsZ1TGDevatWpcIGCrA48NuMoYyfjKc+YT3169aZNGzbSQzcbS2ykjh05SqNHjmKcN2roreFe+hcbH+NXqrgHFc5fINZrGNoBeCr+0d42Pq1pasAUunThQoJcw/Tvu6ueTQLEVZiNZ7iyeN4Nuksd23Wg3DlzMVEwcfwEWrVyJS1fuox/y3S+xEfHBwyBs3zZclq1IiL86MCTvAxz2XJasWw5TQ6YTPgA5s+bj7r7daV7d+/FM4ajV/3ZM2d5ISqQNz/hYzVuzBhaib4tXcY/6XN0fQ3vGMdly2jl8hX8UVm7Zi0/Rxee5LeBu3QZvzNTAiaTT8tW5FGsOFWqUJG2bNpMX79YeFHyvkUPK+6TW+3f4UOHmdAuUqgwNWvalPwnTKRlS5bye4oxEBzG1LfgfjkTOOvUcYwFbG08AQPzaVIAj2WhAgXJs1w52rVzlzYYal+1yHgK6Nvy6OEj6tOrF+XNlZuqVa5K/fr0paWLlzDuuY+xwBHGDjDwW71yFeN/zarVWlxMxxPl8H7Ax9o7Z/Yc6tWzJ1WuWIkK5C9AmFfPQ0I0DOv7rCUkwoBJgCTCQZUugfioUa06lSlVmtavW0dfPn+WJLf1N23cSJ7lyjMxcufOHZt+JJSJi3aobTl+7DiPAXade/fstWmzKx4ePXhIz58/dwVohnn71m3q3rUbZcr4NwXOmEmfP7n/e+UosnA0kj1LNmrRrIXL7bQE3b5DL56/cLRpMcp3/uw56tCuPR+brl61OkYw4qrQrRs3yat6DSperDgtXbKEwkJDXVr1/Xv3yeiYylmVvnz5kgImBVDB/AWobes2Lh9rZ7XbmXBMAsSZ2ExAsDA5fVr58E718sVLCahlsW/K9WvX+Hy8edNm9PLFy9gDdCGEixcukEfRYtSxfYcIbVXlWJzVhLtBQVS1SlUaMngIfXgfLjMTW/hMVPGViXBIAf6TKGe27MzxCo9NvKETx45TgXz5+egCxwCudJDVAsHapXNnCguNKKvhzLq/fPlCI4YNZ+6iyglxZh0xgaUS8iCowTksW6o0Xbrk+vUMxjQ9y5dnzmtM2h6dMocOHiRwogb0H0CQa4FT+x4dWO6W1yRA3G3EHGzvssVLebE8dvSYVkI+eOruXEuMRUDgQUjU5qP31XLLL8agrQ0W+Cqcg/sP8KSdN2eeGm3DebBJiIMHfTvfvX1nEWarWJFCgoMjtIDzo48yMBFyGEfo65FcoaGh1KdnL/q///l/KFOGjLR7125JipGv1oOw+swAvxINHDCQypQsRY8fPIxRHe5S6OOHD5az/CZNCeOqugh4URNjGPaf4E8/JktOP6dJS8uXLDWEYjgmhjntR0rb8e5A8NKzvCc9fPjIfoE4TJG2ocr5c+fxenb65D82LWv2WOIAACAASURBVFDz2CRE90GZhyAuwZH4r//9H5Q7R046evhIdKFFmt+ozeDs5sqVi6D/RZxRPklLLL5JgCSWkVT6gcWktldN3qnF5UsMFu7Afv1ZMp2boyNA0BZntefL5y/Ur28/qlXDi2/2SPedBV/gRcfX171v3z4mkjZu2BAdMHbzCnzx9RlXLF9Ov6T7mYUXc2XPwUdVrpCVUeu/e/cuVSjvSVP8J+mbk6ied2zbzsLVJ0+ccGq/VFwK4N07d1GGP/5kzlm2zFlYGBJcP70zKqvPE53nM6dPU77ceWjhgoXRKebyvLhh5F23Hg0dMsSpddngT9kEzJg+g35N9wuVKFyUMvyRnurUrkMPdAS2lBU/tg0DnGbNmpFPi5axBeVW5U0CxK2Gy7HGnjl9hooXLUYQlhPnrImihydwb16/TpXKV6CUyZKzXADYuvaclBHfXr6o4nfv3kOeZcvRwQMHosoaL+kTxo3jI7DHj5y3o7SHsyuXr1CBPHmpYL78dPbsWZoaMJmSffMt9e/TV7s1xEiwEoVfo8t2sYNBjPPggYP4Jo+dLIkiGn2EfhX9NeTYdM5oLKFHBwTdb+l+ph3bt9OqVavoj19/Je969W1kHqSs+LFph5T9/OkT385o79vOpbIPUp+j/v59+6hIgYJ06OAhR4tEK5+KQ+jPyZk1O5X2KEnnz52nYUOH0g/ffEvjRo/RNk/Omjv6Rq5Zs4ZKFitOkOFKKs4kQBLhSG/fuo1q1vCimzcsysDUCebM7gpcXPPt1sWPfkmTltKk+omyZ8lK/5yyZZWiXsnvrDbgLLhcmbK01A6L2ln1xAQOBDO7dOpMnTt2oq+REGMxga3HIwTlcM3v959/obmz5zDI5yHPqVH9BvTTjylpxYoVMakm0jJqGxYvXMTcFuhgSKyufr36NKBff/rw8aPLugjO5cD+A+ib//ffNGr4CE1o3LdNW0qTMhVN9ve3W7c6HnYzOZAwfcpUatGsOT1+9NiB3HGTZfXq1VSudBmnt0mPs5evXlGd2rV5Hm1Yu547B70ddbxq0S+p09C2LVttOizlFeaJTbojD4AhcCBUj+u/Z0+fdqRooshjEiCJYhhtO4GJAoEtIUBsU53/tGD+Akr+3ffk17ETzZszl7JmykxVKlRkhUxqbepkk0mnpkc3fO3aNcJVyFmzZkW3qMvzf/r4ibCThO4SZzojvE0OCKB0P6XmM3xVBgfyP7iuiF8EQeTYrJrWDklbsDMtXbIUBd0JcmZXExSsalWr0ZxZs53WJsGdCnDDuvVMMHrXb8CK6iQNeC3pUYJyZs3KCv4kXmCIL/Gx8UHAQkfFg/v3GYwzYce0XZMm+lO1SpVZ4VtMYdgrp/Zv7OgxLHMD3S7qjcG9u/dShj/TU+kSJenG9Rv2QMU4XtoA3TqlPErQmX9MAiTGyDQLxj8GwAGBzgxnTxaZKGoPwenAuXGh/AXo/PnzTM33692HP4gjh4/QskpZ8bWEWAQgqV6kYMIiQKR/Hz9+5OuNkGx3pTtx4gRl/Tszs26DgmwJANAY8+bO5R0ddrXQvqg5JxAgAgvXjHE74b6b6WaR9jvie9WoQYucLBsh7wrqv37tOhPTIBZF6PErxsg6Ttu2beNxxDXUkGcRBZod6YMjeWbPmk1tWvkkKEVzIAyqVKzEGkQd6YOjeVT8Q6dN1r8zUfmy5SLUg2PGKQEBlDJZCurZvQeBUyUusqNmyROZr7bh/v37TOScPX0msiKJKs3kgCSq4bR0BgQIzquFAFFfcmd0V+BBGyR2a2lTpmJlPQL71cuXvGOBIN2WzZslWmM1ahGxDMDwHRMggeEcEGlbLEHHujg4INCv4GwCRO0frmpC8+kfv/1Oq1etMmwz8rdv60upUvxIs2YGGuaJbSQ4LSBA7gXdjS2oBFseR5oL5s13SftAGLZs3oLS/pSa5lmP0LgiUCBWAgQE7ZBBg5lD0rd3H/r06ZNL2jIrcBZz0hKSdlTIX1R1AQEiCAS3B7JkP6dNR/v27pNoGx9jhGv/mEdQHuhMJ3OaCRBwQMwjGGei14QV1xjYtnWrhQNyw5ZdKC96bNojMOBDg1+KH5JRr+496H2YrV6EY0ePUpaMf/OZpjOFMNW2gwMCuzPYtSUUJ/gBAdKxXXs+03dm2wQ+/AH9+9NPKX5k2QTRH6DVpXA4rl+/TqVKlKTMf2eiM1bZHCVZKxLTgEaAJGoOiBctnL8gpiiyKSdjKJG4YvrDd98z50GvXEvNC10Y1SpXob/+TE9QiGbjnDSgs60ESEJStT9uzFiXESBQHdDVz4+Sf/cD+U/01/Rw2ODW+nDyxEkWhs2RJStduqgYCXQS7u/fu8frJS4RJBVnckAS4UhrRzA6AiTWXcVEs042nPv//suvVKVSJbp9+7YhaCiqSpcqNXXt3Dlcd4KTJisqvAoOSKHCNDsw4RAggoiPnywcEAgVOs0puNu+bRv9nf4vvjEBTkhUDnZL0v/2O1WvXMXpGhePHzvGQoK4kptYHThNC+Y7hwOiDCPBenHO7Dn4CA0EdVTu2LFjrOOljEcJun3rFmdneHxeY1waRIxKyBjnssTOnjWLZUASEgdk7JixTjuCseAqfB2D6YLffv6FVes7Mo8gcJ0udRrm/L5988aCNHVArch1FN/qWEDzKmRATpscEBUtZtjdMOAKAkSdUA8fPKRKnhUo018ZaLNyxCJ4kryvX73mo6C0P6VxCfs6yREgVgSztHzJUpQx/V9kpJdC8C/jAR9CdbiSC44JBGOdeTPHJEBUTNuGMRbqeKjhly9eUP06demPX36lFcsdu6kETteMadPp+2++o86dOtFbRSmawBbftiWOPSV2AkQ2UMAGBLPz585DObJmj1KtvuAUHBMcaSZPlpw5wHqsIp/kFV+fx96zSYDYw4wZ71YYcAUBIhMXC2DvHj1Z38eIocM0Y2QqgtRJeP7cOcqdKzcVzJuPzp2xsBZ5YhrsGlQYjoSTEgEii9m7d6FsgRVaMqdMnqyxjCVdfMGf+gyz8eXLlGXOFY7pnOVMAsQ+JoF/GQM1jBLDhgyl1D+mJAhtR0eYEVaVWzRvwfIgyxYv0SoX+FKflhCNQFIhQF6/ekXtWrehH39IRosXLY4Ghohve8EgI7QNwyqv6mQMEBfdcTAJEBWTZthtMeASAsSKjbVr1tCfv/xK9WrXocj0PqiTD9Y3f/z+B/Jp3jJcJblJgMTo/YLlTyh7a96kKcGYFZx+0VNxL+lSGZTTYeGsWL68JqQsafq8anxkYZMAMcZOZOOwZ/du5mBV9KxAz55GX38KrqDnz5OXcmTOQhfPX9AaIHWKryU4GEj0BAgRQaB35vQZlCpZctbT8/r1awexE05UQDPuX7//QbW9vOhpDMbPqEKTADHCihnndhhwFQFy59Zt8ihSlLJnzkLnzpwNx4uVmNAvevIMRVm4vpYiWXI2Ay7clHAAMQslJQ4IMHTu7Dn+6EA992kDXQGCb+SVsPgqhqdOnkLJf0hG3fy6EljKsXUmAWIfg0b4h36eiuU9Wd36vr221pGjostVeDAbnzbVT9SwXgN69uyZYSPU/IYZdJFJgQA5feoU/f1XBlZ1j+vP7KJAvBEehw8ZSimTp7C56WaUT4diu48mAWIXNWaCO2HAFQQIJpZoZMQZtN4ZTTw1DiqmSxT3YIU+MCTnDJeUCBAcn0CXR+pUPxEE4T5/+aIRGcCliuuocPvq5StWnQ5huhXLlmvZBYb4WkIUAZMAiQJBuuS+vXozAThuzDgtJbo4R0Hoo+ju15Vv0PhPmBjham5MYCZ2AgSCpl5Vq1HGP9PTujVrNfzHJAA1BFUrV2Fh8K2bwtUNxAQWypgESEwxZ5ZLUBhwBQESOHMm/ZI2Hfm2bhNuDwO7Bjs7B23x+xKeYcumTcy2rFG1Gt27dy/WOEtKBEjgjJmU7LvvWeW9yrUIx27U6MSYSH5oW8yTMxcVyJufcL0wNs4kQBzH3rJly9jOS2PvRoRrtexkUBwHo+V89PAh4Rgn/e9/EIwf6p02D/UJdp4TMwEC3SmjR42mVMlTUL8+fcMJti9YxsLnhh3UhEcr43X00GH6+8/0VKZUabpy6TLnUZLDyzgQMgkQB5BkZkn4GIgxAaI3VGadSSeOH2dDZ/hgXb5smWTRwoIVDgTthg8dRt//+xsaOWKkJkAZLVhK5qRCgGCRg5VbsO0dVXcOlMtCaO8jtHDRQkr2zXfUqllzeh4SomA2YpCJFztXPU0CJCK+tBgeCMtInDt3jkoWLc6aa8+qR5haZscD6phu3bKVMmX4m5VpyVVSNd1xqESJggCRF1/XceAJ9pKqValCD+4/4NSY4kkFDWHw5N//wLafVC2pah5HwiYB4giWzDwJHgMxJkAMevbixQtq6t2IfkqZimCrIrbu0cNHVLdWbUqbOg3t3L5DA6cuBGpYy2AQSAoEyOPHj1mr7J+//0FrV68xwIIlyh7OJF585Jbw+/fvqUe3bpTs2+9oxtRpGmxJ1yKUMmqchE0CRDBh38eV9FYtWrEA8fw5c7WMRrhGolG8xIkvQPAMLak4UsMVa72WVKTry0hZvZ8oCBB9p4hYSy+OgCG/tmvnToMcUUcJDsWXEuBktW7lQylT/EiwixVTZxIgMcWcWS5BYSCmBIhlsxau/hkL2YTx4ynF9z9Qn169w49e7CyQjiLhyKHDlCN7DipaqDDdsaPEzBFYiZUAkQ3c1y+WD0uqH1PylU0jnOgXQzWPpOl9NQ9wWL5sWcqcIaONoTPkkXJqWI0TOCYBIpgI92UMEQPO34zp0ynZt99TB992NreXpIQRXiVNfDWPGkY6VIXXrlmL1YnrtaTq8wo8Iz/RECDKAGAd69KpE/2aNh0FTJpk1G0tzghXiNPH659hBwt2fGAT67SBJXCtgkgCJgESCXLMJPfBQGwIEO6ldfLu3L6dhbXKwtKp1dCZ0WR0BDP6CQuhudQpU1G7tr4UFhqmgZB84msJBoHESoBIV2Eg6/d0v1D1qtUiGMiSPPAdwZWaXx/euHEj/fnb73zE8+jRI32yBt9ePSYBEgFlNhEw1pfl70xUrEgRunAh4pVZm8zW8bSHazWvPs+hw4cpZ9Zs5FG4KF2/ek3Linz6vFqiLpBoCBClXyuWLWPiA0rfwPUTp8eLHkf6Zylnz1+zajVf7W3c0FsjMu3lNYo3CRAjrJhxboeBmBIgakdhv6WyZwX689ffaP/+/WoSh6M7OQWAbEzeh4ZRs0aNKUXyFDR/3jxJjhbsxESA6BfDu0FBbOcmR9ZsdOTwYQ0/gnfxtQRrQITp7KbbkeMYPGgwJf/uexoxZCh9/vRZAytwxNcSlIBJgCjI0AVfvnhJdbxqsnXojRs2aKmCT/gS1hIVotIoDfnsxc+eGUhpfkxJLVu0tPnYqrAjCycKAiSciUvXLl+hwvkLssXu8+fOG3bdCJdqnBrWA1DTwIXq0bUb28fy9/ePcBSmL6t/NgkQPUbMZ7fEQGwJkLdv3xIsbkJ52ISx41hxDxChTjY1HFMkQRUybLnky5PXRpmSo/ASEwHCcvhW4gAEAFj16VKnpckBATboMMJ78LNg2rJpC318b9HpIUQeCr5985ZWr17NSsekrPhIl/CTx0+YhQ9OyNbNWyLUiXyS1yaRiEwCRI8RyzO0Bo8aOYq1bQ4dNFjTuWIPl5AlgHwCxkLvoEofyq9UGy1G4/Hxwwe+Yg3LuvPnhsua6OHZe04sBAj6B0V9UNgH8wNQ4Kd3evwBt9u3bTcUjofSxdWrVlPQnTt6MDbPOFL2LFeebyUdPnTIJi2qB5MAiQpDZrpbYCC2BMjGDRuZigfL8ukT62KoftWUD1dsEbJ6+Qr6Nd3PbDPmTTQ0EqLeREWAKJwJmH3/OU1aatakKRMQKo5l0RQfadDLAnsiIBZV7sW7t+9YdgSWVmdMna4REGpZNQwDg1kyZWaDWHprqMin5lXbZBIgKjbCwzt37OSr69AV8ejRY07ANLKHy43rN7Ca/C4dO1FwsO2tpGlTptJff/xJgwcO0iqIMB7WdwhG7YoUKEh5cuSkk8dPaPkdCSQKAsTa0YCJ/iy/1rlDRwp9Fxpl94cNGcJHkVOnTLXJGxISQl07d+GbLtDBY+iU9XHb5i2sLbpShYoEIXJHnUmAOIopM59TMRBhIYkEurDYI8lCu3ftokYNvenmzZs22ZQ5YhOvPty8foOKFCxIubPnoNP//KMmGYZfPH9hVwsjbFZA6VVkDju7rl38WB5kkr+/llXFib1woiFAlIG5cO4cFcqXny2k2pj81jATMXDs6DEqW6o0pf0xFU0cN4EzQPssbPXAaFnVKlVtzYfrQCjV0/QpUylNqp+oQ7v2DtsnSeoEiPp+Cmrv3b1LpUuWoswZ/6YDDireu3njBhunS/7td6zvBfMHDgQmro/ivdi9a7dUEdH/Eh4FJVu/pE5DkEcwUhUubRZfSiYWAuTI4SMsWM2C7pFwLdT+792zhwrky8/WceVWGLhS3f26UbJvvqX6detpFogFX6ovsLAJGD1yJK9pvXv20jgqmGeSB76EBYZJgAgmTD9OMGD0EkrF6kdBXlTOjwxIVBR8SRn4d27foX59+1L2rNnY1LeaxkWtuySBqaZjl9C6ZSv6OXUamh04S00yDN+4cYMFJLt37UavrHZJJCP0VTSoV5/a+7Ynva0Ffd0QcC1Z3IOgYhy7RtWpefUGu9yRAOExtDMGWOxaNGnGZ/irVqxS0RBlGGray5QszbcgRo0YSSOGjyAYrKtWpSpdv3EjQnkVr2o47F0o1atTl4X2Fi5w7EphUiVABG/qmAqiu3bqzNdix48N13aKNCkj+fQ+ZK8a1m/Au20oy4LirIx/ZaACefPR8aPHOHtUMJAJyupg/fib//4fGjdmrE01kZV3FwIksj7cDbpLdWrVpt9++ZXADRYnZcSXeNUHjkHowdL06JGjqG+fPpTi+2TkXa8+PXrwkLNGVl5gvQh5zsQkZOg2b9wo0ZH6JgESKXrMRFdgAC+zIy+0vTyIB4sQOiKgpbRo4SJMxRcuUJDOnLZYn5V224OBdKRNnzad9XNA5Xrou3dSzK7/5PFjJjK+//e31LdXL43bAUKmvW87vhffrWtXTYbELiAi2rF9B6VN+RNVr1yFsIAYObRR7YM7EiDSL7UfEgeWMQRBe3br7rAAmwrn3PnzfP78S5q0lPanNORVw4ugAt/GQUBPOe6xCVtVl104d57y5s5D+fPmIyihE6fmlTj4SZUAUXGghpcuWsxHKfgIQp5K7+zhUeLBtm/k3YgFVzGWxYoUpRPROEoROLdv3WYNnX/9kZ4OOChI7i4EiD2cYpMyYthw+hbKDoeP0LgP+vx4Bp4EV2r68ePHGefYiOHn3dCbnshRtJrRgKBU4f1z8hRlzZyFtQ3fvmk7D43qNgkQHXLNR9diQH1Z1TDXyvw6S/36NEwymJOGPo2+PXtR6RIlqUTRYtSmZSum+BctXMS7qBtiaMmgG3qYOG7J8FcGvnkBVrA4ySe+xIsPYqFRg4b0wzffsuAqZAd69exFv/z8C/Xo1j0C90PKRYD3lWjc6DGsFGtAv/4RFoYI+d1UBgT9kL6ID5zs37ePLZuWKVlKIxrUdMGbka/mmzhuPH33P/9mnRODBg60ya7mU8M2mawPUBkO5XPNmzTR9L+oXDm1TFImQPR4hGB1wTx5WSdEdKzU6uGMHTOGhSdBkDZrrIyBQjyqYyBhPZw9u/ew/aUqFSsRjEkaObWMOxEgwhFV2w+Ox2/pfqbaXrU0jkVkfVbLSj7EQQg/xXc/0E/Jf6Qxo8dIkjZ3pW4twYAYQRqEyEHEtG/rS18+W87IjOpEXpMAUbFphuMMA/JCio+K1bA0BOqyz549yx/qyhUqsmXaerXrUOC06ayiOzTUwrWAqW+wcW9cDyckBIaR/zw4hOrWrkPp//jTxkCTURuM4kCEQGASin6KFy5C2TJlYSLE3tGLCkMNw64F2P8QqFy3bp1RU23i3JkDonbkTlAQH5X8ljYdbd+yVU2KVnj5kqWUJUNGVskNAbhf06WjSRP9NcFUGwLC5iFiNVAp3btHT0qTMhWNGzs2UnmQpEyAAHPyDr97F8oGAyF7sWTRYhukSh6J1D9LPD5sM2fMZEu5kOvBjQqYfe/WuQtBm6rq7MFAHjUNwsnff/MtgbD//OmTCiJC2J0IEH3jr129ypyLrJky0949tlaG9XnVZxVXkEmbOWMGZf47E1UoU5Zlq7AuYkxwqwlOza+GjWBCFsuneQv649ffaPZM22NtfVmTAFExaIbjFAP6l1Eqx1WyS5cu0czpM/jjXKxwET6mAJsRuy3VMJmU2bZ1Kx+NQEbDEQeZAahx7tWjJ2ZXhCL22qbGwzw8JO//5z//D5Uq5sHUPAAhj5pPDxy1qelnTp+m7Jmy8FFSVEKY7kaAqP0UPEBLIz4MuKkCuQ31FovkccRfsngJ/Z7uZ6pZvQZBABKaGT3LluNdtP/4ifTp40cGo42u7ijGqA4siB7FijMbed+ePUZZOC6pEyCCmInjLcr1Ovq2Y0u1Eq/6Ru+AGrds6TKei0XyF6Bjx47R02fPWJAUV0lxEwO6JlSnltXHy1jjWq93/QaU7PsfaPXKcNkiKSs+yrsTAaK2G8e+nTp05D4G+BtrO0V+KaOGBW+Yi1hnf/35FxY4DX76jCDgXbhgIfolTTpOc2R+Sh0CF4L9OM7MmzMXwQikOH0+kwARzJh+vGIAVPOVy5dp0cKF1ManNZ/jwo4BhNL2791nX6bCKgW/bes2KwfkepT92LNrN2VMn4Eqlfe0uTImk0N8ALIXxvXZPjh2SZuOcmbLzpwQtFXPAdE3xh487DZwjNC5Y0e7CzlguRsBIv1X+71502YmEhrWrUcPHzou5Caw4C9bvIT++PlXqlqpMmEXKA5n0OXKlmPrn5PGT7D/3kgBAx96ETCuNatVJyzIRs4kQCAHc5xyZcvBqrjv3gkyQlOUcTg+wPzJny8fHTp4UMv/8P4DFoKEFVcQIbh5Fl2H41p8APPlycdri5RX30XEuRMBIn2AD44TiDSfFi0N5W7UvEbhT58/0cwZgZQ61U/MjQTOxR0+dJggU4ejlMDp4ZwQSXfEB+EHbmLdmrXouZ3xMwkQRzBp5nEZBqDEBhLTsFtQybMClS5Zkjq270Cw7QBBU0cdPhq4gSJHMPpFRuDgg1eudBm+dqZq25R0tZwalnT4ID569ejBUvu4pgbip2Wz5vTDt99R31696Y2ObayWjRC2btlgAK9dm7a8oCyYP1+z6qrP744EiIpHjI9H0WKUK1t2OnbkKHdP0qESHUqPwM3AEVeE3927dO/uPSZScWRVtEAhwk0YONn5Inzy5CkqX6Ys4xLyIQzz3j26awcubiRhIZQzbqiuHjV8BH3/P/+mQf36E4hjvUuyBIgV0SHBwVS7hhfrblFvcQGHmLfAKeNbxfnduxx/79499jdv3sxXrwvkyUuHDBRYPXzwkBrUq8f6eXDrDITmfWtZfjcA2wof7wXqhDyWOl7z5syltKlSU5uWPjbx8s5hXN2RAIGG07w5c7NtKdXK8KfPn+nR48cUdPsOz5+gu8o46HA1ffp0SpM6DRUvUozOW+eR+p4fOXSI1RNAOWBgYCBfxwX+I4wrxjroLs+zx48ea8c24NB09+vK6+SYUaMNOZ1CgIALnFTcv5JKR+O7nzjZMDjd4OurW7Zsof59+1G1ylWotEcJatG0Gc2ZM4du6m8wONgJRxSRvX7zxqJ/I0VKGj96DH2M4mzYqGpwOHr36MXEBgxhQeoeDpOyoVUwtV/P3vRSxzY2giWLoPgXL12iIgUK8Y7Qnj4SdyRApO/4MODWUsofktOsGTMlWvPbtG5D4HqBM1WhXPkIv4rlPdl2S6oUP1L+PHlp5w5jy8IAiOMxz7LlefErV6o0VfasyGWN4EIItk7NWvT29RutLZDNqe1Vk9Km+olUdeKS4eiRo3xWfvee8e0lyefOPo62Fs6bH6ELkJUZPmQoW7kdOngIvQ8LtzWCj86EceMZNzJe8IF38SuVr8AEIjTQFs5fwEbtvr4yEBQN69XncSxasDBBDkyFGw7TkzCOEA4HF0wcbC75+rShNCl/ormz50g0+zLvZgXOYsuu9+/ft0mPz4exY8YShGifKRw4IbLfvH1rMcKXOi3hGFJ1z54FU8cOHahkseKMJ8wlPb4Qh6PK5N//QMWLFqOTJ0+qIGy4voePHGEiB3OuTImS2jwSvKvjio0d7Fw9exbONbz/4AFfGMjwZ3rau9typIl+CO7DCRDb24s2DUpkDyYB4oIBxQslL5U98NA6OXzoMBb+xDU7XNmDxDQWcxF2UssKPPHVNH0YMiBRCaGuWL6cWYLYVUVXAynqg76Inj160g/ffs8fLCE+pC3Y2WGx/O7f31Cf3n0iaPSUfJH5a1avYi2pYP8bHee4FQEiK6a1w/iY4YPu07IlPQ+xKJxScTF0yBBq3rQZEyltfVqT0a9NKx8+996nCNyp74eqtO7s6TPUs3sPat2qFbVt3cbyM4Dr07wlK8F6p7uGfcJqUK1IoUIUpLsmfezoUSpXujQTnmofElO4Vg0vWmhgan3Txo183RwGA0XrpYwBPvgo49OiRfj4Me5b89EqCNA2Pj48Jn6dO9ORg+GquwWGHof3gu7SgH79uHzb1q3Jt411LGVMW1velVbNmxOUYOnlqK5fv04exT2Y23JK+dhKfSBAcOz7wEqASLy+HXH5HIEAUWy9TAkIoNQ/pqROHTuFX123zjUocoN8W/OmTXkeAd/qrx1w5tOaMI/8OnUmFR/SP33/Dx88RN38/JhIs8yj1tb51Jp8fVpr8KFPadjQodpxmcAB4QEZkyqVKjOHSuqBD45KKY8SdPqMyQFR8WKGo4EBvGjysumLwrpSqQAAIABJREFUnTt7lqZOnsIfZgiTQkkUlN3s2rlLe1H1ZQSe6uvz6J9xDKIewejTL8IGS8GClC9XbtKz+44eOUKdO3Uiv85d+EPk5+dHfl38mFvSrYsfsxExAaFp9cfkKQgL8x07mgbBiqxfrx7LIDSq34DhAQb/rPChBRXwUWe3rt3YFoa0F4KTkC3B2Td2kjZnC24sA3Lh/AXm7BQtUJDUK8/Sb/gf3n+g92Fhkf7ARVGte6rlJazSPR8/fmTWO5cLe28ftmIxVOAA99OnTuOxgI6XN2/COSRyBAPWf2J1eM8XLLDlgOBaK5S/QVEYPkxGDoKN79+HscVnjCdwH4ZnJRwaFma46TCCJ3Eoo8GwvgfyzPWEhtL7Dx+0ozQpBx86gyB0Dq7OG4XThTThgIjNGXtrmQrP1WEjAgR1QsMsZGZwW0jkp9S2oO0Q0gdewucS3nt59y0+0o02fSosNYy8wD/mnuCc/VDUY4GPZ9T9RbdoIQ6WwFP8kIwG9u1nszETDshp8whGRbcZjg0GsCuCXo7WLVvyFdWqFSuxhsJtW7aSq9icIoSK3Y44WUhwXo0dDliOMNAkhI3kW71iFV9By54lK+XMko2yZ8vOWlVhlTWX9QeT39myZOUrhzhuUZ3UIz5kDrDDADzAyJEtO/vQ1Ipn+PjBXHmuHDkpUHccAe2DFT0r8LXEndvDjxlQp1txQKxIevn8BWtIxLW8VcqNBBWHCTWMa6bY5UHYb/68+fTVqo0XtzXActa/Cwm1HzFpFz7WCxQOCD7ckMVI81Nq/mjHBGZ8lhnQtx/LrIDTpjqRAdHbAlLzxHU4AgFCRMHBwbz5gX2cXbt2xXWTYlUfju28GzRkI4Ub1q3XYJkEiIYKMxAbDOC4YPOWLdS1SxdmTRcvUpRZfOvXrKVbN28a7krkg62vV+LF16cbPUd2DXfO7NmsbbNzx04UGmYx0KTChoIzCEfi6hh+uMp788ZN5YfnG3Tt2jVeBIzqV+EhHaxQEEMqHIGr+ghDHbm+/O6duyjjn+n57Fw9U3U3AgT9Gjl0GH/AIXwKo3PQmonfYvwWLuIfJPrlhzgJR+ovtpRhGFZYyK+WlzDniQIu2sPlFy2ytG3RYlqzchX1792H9bTgRsWpExb5AnBAsAtNzARIrRogQMI5ICuXr6DUKVJS/tx5aMqkAFqxbLk2ThqeBYdWXKvxWlgdc+sYyjhrY2DNo46bWl4dZ86jr1feLWs82h4wYSIT9ZkzZrRRVy4EiHBAjOZ3XMfpCRDMI6iZT/l9MipfugwThsuWLLW8r8D14ojzST+/BH+Wdzx87km85NfjNqpnKS/5ZDwkHj44UOAC//RjSjZBcfHiRUYpjr1KeXiQyQGJ6zcsEdQHs+enTpxk9b+VKlaiYkWLsinoRQsW0rWr1zRtkvqu6j+2+vSYPNsjQCBfkhUKdsqW07RtxgR+fJSZEjCZ/vjtd951Cs7cjQABy7hQ/gL8Ac+eOQvly52HcmXPwb+c8HPk5LN5DivxMAwY2Q9WT5Eufu7sObVweFx4uhoXFdw8OXNpsPgaZ67cbOQLFoxbNGvOrwLOzhM7AaJyQEBMQ24LatKzZcrMR5nAk+BSxa+Exec8OcLHR8aN05V4S/7wcZXyMfVt6smeg3DbJnOGjPRL6rRUp1YtvjWDwcQGBRzLhMwBwU3B3Dly8nV/3CDDe4lnrY88FuE4VnEmYR4HZc4gXtLElzzwMU+N8kheNU0tp4a1vNY5BfxjHkE2C0c24JZDBuTMGVMINT6+MW5XJzgdUBIGuQ4IkRYqUJDveY8fN56vcunPV+Oqg0a3YHCtE3IhaX5MRVDU8+jhIz43xdkp/x5YfXm2+rgBoaUjj+R78MC2vOTTl9PFAxYWN61eSdfHWetB/ZiYWPShch5aIZcvW8aoxFXEIoUK0+zA2XGFWofrwa0iWJQd2H+AVgYcHrCLd+3cSbt27OSdJ47Ltm3bxuEd27bTdms43N/OaRjT8N9WmzDKqz8pu0Ngbd1KO6zlOQ7xWpoK1zbM7dm6jcRHW3ds387Wlnfu3ElQ843zcNiLSexHMBYZEItxvmdPn/J18127dxPwwONnHQPBazjulbEB/jAOMl5bt0Yct23bbcdKG7ftJDDFD38f5P2x+DbvglbedmyxSdmN9m/fQdAFhPkIBw5I6wROgFy5dIlwhC3tBx7UebTNOo9sxsWKh+3bt1twbh0HGQset+2W+Wd537dq+GZ8WscKKg7w26obO8E5w9G9C9wOm3m0ldAOrAW4vbZv9x4WoMVaV7pECZMDoq2YST3Ad6RskYDzO3xIID/RtHETJjrKly1HgwYMZEE0pMsO3bZk3D3pOSAQPsTdc9y6AMX9d/q/KFOGjPT3Xxlsfpn+yqDFI12e4UteCet9pEt+CUsZUPqcJnn+ysC7L4Eh+Yx8yZMl49+Eq4oQSIXlXBh3un3rllsRIHH3BsRtTSKEmpiPYCwckPAjmLjFsOtrkzXLHY5gXI+N+KnBlAGJH7zHW60y6aJswJevdP3adYKyoC6du5BH0eJ8z75ju/a8g8DxS0Jy2BE0rNeACSW0C+rcYRkS2kkHDhjIOkdgbMnm16cPp8P8NMcrzygn8f16WdI5rrelDOQC+vbpS/34GeE+fPVW4Pfv04fPbDm9N8J9OC98ySPw9c+4wstpffowN2FA/wHczn1797H9G3figCSkd8SZbTEJEGdiM35hmQRI/OHfJEDiD/fxVnNkRAiEgqDZcEj/AQQFTqVKlKLmTZuzEp/Hjx7FW5ujqljjgDhojC4qeAk13d1kQGKDR3lP7fmxgR3bsiYBYoxBGStJlWfxJV7vI12fx96zPl4PC89G8IzyIS4xESAqbozCEie+PZyo8WpeCYuvz2cUr+bRh00CRI+RRPyMl8PoBYHFSQgLQklYHa+aVKq4B8HibMDEiXT18pVIMWIPZqSFXJCocUBMAsQF2HUMpJEMSFQl5X0U39H8aj4pK76k6Z8lXvWRx5F8ahmETQJEj5Hw55jgM7x0uJZMNc6V4cREgDgLT6JLJyZjGZ0yJgHirBFzQzhQyAUFMVApDhPY0Gw4ZuRIOnTgIEso23RJeyNtYmO0eNtCcM6TngMSnUmAFqj534WGshIlGz3yX4nevX3HSoz0CnxQ9tPHT2w6PMyq0ArKmGDfBXf3cY1W9fXlVQxIO8TXty0xcUCkj/DlJ7iA4C8UxKmG5iQNgs56C6mCJyhFev7iBQu4ASYUJ8GQWfCzYB4D+BgPlI9sHKQue75JgNjDjHUuff1K796+1ZTGyVhjXkChmzwLFMS/fftWGzeJhyryo0eP0uXLl+nrF6vlSWsi4IcEhxD0/PD4Pgump0+e8hzVv08Cz8hPjAQI3m3gWewbCb6/fP7M4/Lxk8VSNDTXvgh5zjiEoDFU6asO5aBIDJcPPmBtk++ANRPg4zj+rVKXWj6qsEmARIWhRJYO1bdz58zl67KlPEoy4QHT6JBkfvL4cYTe8ouLDwT/4f3TvYG6j3cEAHEUsXXLVja/Db0bcDLhHK1e8uPDNHLkSOrSsRNBQlsctHTOhsrm1m3YZLjEi7954ybyadmK1q9bx1EXL1ykxo0aUVe/rnzlrHu37tTNGgYxYs9JO8RHPjWc2AgQ9E3tX1hoKPlP9GcLn1Cr3aVTZ4IW0gP792sog6bYFs2bG2rShfGxyhUr0aWLlzg/7Lj4tmlL3f26UY/u3alHt+6sgXba1GmaThe1fq2SKAImAWKMIMEl1pI+vXrT4EGDbGyDQE06xlW1uwNIN65fpzGjxxA05sKBIAmcGUitWrSinj16UFc/P1b/jdsV4qByvGXzFjymGFf88K5A50d0XGIkQHBpAGYj9GvN3Tt3aOyYMXTqlEWfzcIFC8m3dVttbYKupH59+9HlS5c1FB4/fpx82/jSzGkz6NOHT1o8Andu32FN0cOGDIlQl01GOw8mAWIHMYkp+vXLV7R2zRpq3649eZYpS6WKefAHdv369XbVYkv/ZUHRnnUfRImPb581oSrWcGPaHtirgcr4lMmS05ZNmzUwsBMCFerf/Pf/UK8ePbV4CTRv3ISVbY0fN46jQBDlyJGD1q5ZS/v27qW9e/bwFU6EcWvIUafHf2IiQPQ4gJbRRfMXsLZHfGiuXLnCdoKgfbNu7Tp086aFuCxSoCCl+P4HWr7EcjVZ4Dx58oSPDv/1r38RBHbhoNAJnL1dO3bR3j172SAWzADAWF10xkHqEN8kQAQTxj7sf+D6eNZMmW2MBsKGT4F8+el5sK0tINjdqVG1Go8RIK5bs5a8qtVgH9yPEydO8K276tWq09lzZ7lSEJqwnI25Jb8d23fQlctXmKjVzx3jliYuGRDp48njJ1jnjt5UwLkzZ6lmDS/atHETZ8UGqbF3I77Su2/fPr50ACKkaqXKPPeQCZbJoXofGp0fP7SVA9y0YSMreaxRtXqMlPKZBIiMWALwA2fM4J2f/mrfmlWr2Dz4xw8fuJWQ2YBmOdzuWLJwMbMdkaAyKMGCO7h/P5uNr1DOk69uwtAXdgcXzp/XWKMJoNtOacL2rVvJGwTIjRsWeGyKNwLH0LAudaGClc/27dqxZVvs1LAjhwM7c8TQ4VQobz6qX7ce3VMsZ2K3AAuTsBY5Y/p0zr91yxaqWrkysy8NK3UwUm0bily9coVgFRTKkxKKkzZi14pbUqoekOi0EaxeKISaNGGiTbFXL18x8QzCAa5yhQqsg6NVs+aaanTEr1qxgq0rQwU+CD04f39/NqTFD078d+zoMRbSvqdTy+/EKuIdlBdUsRtYw42qYTj2whX9Fs2aUauWLWnIwEFaEdiPgdVaHE+q7p9T/7AxyYMHDnI07DINGTRYzcJrVteuXWnFypUcDwvG0ABq5OSdNErT4qzM3DmzZrG6/XjXhKowl8eNGUtQ7qhqQdbabSfAfbbCAD5LepQgfZ/AYYJKdHC84XBLb9TwETYQcYMQBH+zJk35WAw6QmrX8CIontu8MXxTBoOemOswV9G5Q0e+oWcDyIEHmOaANXS9fS4HirptlgRrDbdb5y6s86F3r17a2R2wPHb0aLa+igUaH0SwGTFBoZwKu0NQsDhawbsHtd6zZ82malWrUb48edk89bQpUwlHAi91k95tR9Cg4SBAGqkEiJVTo8xpg1K2xxtgGzesW58WLlxI69au5eMpqGiHwxnnsCFDqVnjJswKXrN6jQZv6pQpbGESxuqmT7MQIGgPtK/iA4WdNv/ehTJrWSsYScDeAgoCpEjBQnwcFEnxeEmC7hUQIIOsishU3Nvrj9pQEM1gG2OHduTQYdakC5hwkOOQq981qlbljxO4edCNAgf4OOKC5U8o0ILyMDgooGvf1pcJSG0cQkNjJP+BOqQfsAVTtnQZup/ICRBoNY6uu3XrFtWvU4+2bN5M8+bOpeqVq9B9q9E+ECBlDQiQUydPMWEvBMjQwUN4Fw6iE7IhHz9Y3gMckYr8T52aNQlrmzquIH5knGSs7Lbf+oLOnTWbfFv5RPhY2y3nqgRlwowdPYaPEiHb4ojjPiOjFcbpf/7hywR67a5MgNRvyEr9kB0EyOCBgyLI/MGiMTjB4D6Bu9SsUWNq19aX1QHInATRgA1D6+YtmAC5c+uOI03lPDI2bA23uAfBcnVScQmWAOnftx/v4KC6Gpr6xGFH2KRRI35cvWIlT0wQFBhEfCChHEx2KuCOTBw/gSlTaGsENZsUHLQEetdvoLHpY9JnyAuADQyLthBug82FpUuXMigcwUBWBgsjrPlCNgEOQlgN6tYjLGJgXU4NmMzx2IFDsRmM4CEvTGeDcDx00LLD40x2/snkNEqGUGbxosVoziwLB0Tyim9UJq7iIIiLPoIzZ89JO8WXfPKMYxZo2M2fNx+VLlmKWrVoSZMnBfCYSF6M0by585gQnD0zkKOhnRc7NhhPw+4NQslwUGcPGzTQ0IrxgY8jtHNnzwk4h3xpn2SGgGyZUqWZwJS4xObXqF6DIFMTXbdq5Uo+9vr4/gNdvniJ8Q9WPRwE3EGAYKOkun9OnGKL2futsj5g9Tdp1Jg3USWKexC4t+PHjmPdRFION/WgDh/jih9MxSOPnrsi+e35mip2hatpL29cxcMSNo6YnoeExKjKf0CAeHgQ1CrAyft78YKVA7I1nAMydNDgCATIzm3bqVihwoTxwHEmjpjBdUebICAOhzWojY8Pr32Qf4M8SHQdYIEDAoIpqbgES4BA0RXYlcMGD2UV4sKxwC6uaePG/BLNmhnIGj5B9cOFvn1H7XzbEShmceCUxEbCX+C4kw/1ylUqVdZuTciEc7QPwFffXr3Jq2o1/jidO3eOYMW3aaPGfIwCIVQoDPOfOJF31/Xr1KWHDx8RjCrVrFadYBsE9g0CJvpzlVA3jAmMs9Yjh4/QgQMH6OD+AxRbXSo4PqtWpSqtW2sRdkVl0e2roziJbr7Pnz4zsQVOhOqi2z7sYrFTnjTRn5o1bcYyA+jzlcsWwbhqlavQqlWrmNMHjhTcsqVL+YN14cIFqlGtGp9pIx5zB0dzB/buo8OHDvEYHDtylKX+1TZGNwzDW7g5hhsEidV5N/RmgdEPHy1Hv470EzfIwAWrW6cOnT9/nk6eOEnly5Slrp27MPcPuAcBot8Y4QMEswn794ULG4OghQDk1ClTWcAbCviggRnyN3B1a9VmYhLjivcFH0rYFMH6B+foezfJfxITrzB/kFDcxg0bua9PnzxxuElqf/kIpriHpm5egEAIGEcwQqCDA4JvDuyyqA7q80sULcZzBnI7LZo0ZWISXF5Ys8X3B1z4gEkBBAH8Fk2b0Z070SdAQLSAwDwfzQ2B2lZ3CydYAgQyB6NHjGTBUFyNnRwQwLgNmDSJmno35quh6kuGM3dYpMSkxCRMyi7ozh3yKFZcu4UCXKi4socbyXPj2nWW44DtFez8alSvzs+F8xegu0FBBLYjCBBIkONcFYTJls1bWFIfVh5xhc2vSxea7D+Jq4JeksqeFSgkxDEWqrRP2iPPen/d6jW88z5x/IRNUlTlbDK78CFg0mSqVKEiPX5ku5ir7ZOw+NIcEIEg/NTF8MvXL3Tn9m2q6FmBxo0dx2MKAbnNmzbxjYkqFSvxhw7cQ0ji41oh8C4LLD4uEFTU1yV1wo8sTc0n4c+fPvGHDzv0xOwgg1HLqyZfL3e0n7jNAu4V3gHIkHjV8GJZBIwZ5iiEI0uVKBmBAMEHs16duqyPCHXhqAByV+IwRriVhnWxd6/eHF2/Th2aM3uOZLHxHR1TvHPgsoFoFsLFBlA8PUAYvnDBQiw07UgT9P2F0G6JYsUNCRAQenKbCBZ2VQ6IwAFXCGMGezkQ7MW7fvv2beYoWjiIZ5ljBcIBnBFwqBzlgEgd6BdkEiGrEh1ZF0fwkZDzJFwCpFdvljPApIAMAli8jx8/osCZM6lJw0YW3RRWzAYFBfE5eCXPChQ4bYYNvtUBtklI5A84ioKAKHbQ0XHAF0xG48P19OlTrSjuvUO4FGx+LIbgUA0dMpTTIWQHtiOOC1ausFz7w4duipUAwQcQH81nwc80eDENyHhigYTRLEz2169eMThJiylsZ5RT24CFE7JHMBUOp6apYTVN4nHMVbJkScOPCp8/9+3HR15YGDesX89j0rNrNxZehJzH8aNHWW4EY6YRIJMmUYf2HeizTodEbPoNYhWG6BYusBhqiw2shFwWXIW8ufIw14jHK4rGYt0KnDGTj1++fPqs5YYcgmfZcrRi+XK6euUqW0cWWQ/JtGLFCqpRrTobukQcCBgcJesdrojiKjxcg7p1mQumz4NnvFPyXhmlS9wp622R5cuWc5QjZaSsK/0nj58wsYVbKp8UXDpaJwxZYvMEA3KqA+EODqJcwzUSQsXVXRCPuLoOBw5HowYNmRgBxxecvz49e1OzJhbu49IlS9lKdHQ5IO/DwqhJQ28+tlXbmNjDCZYAwb15yBhg1wcWFySLsbObNHEiD7bsDHFdqnmTptS0URO2MioDBvkj/QRSn9WwlElMPliFuCoGPSfRcZhwOFLp2qVLhGKd27VnITrsBHp170F9e1t2X/v37aOc2bJT8SJFWQ4HBX2aN6dxo8cyjE0bN1KJYsUIV0Od5RYvXsxX63Yr8kGAnZDGFUQEZF6wSAkXJLL2qWmQp8FHBzIbSxYuIpxjnzxxQvuoyS2YksWL0wqrrof169bTv//r/5JPs+YsrAjZHbCOgX+4MaNHk0+LFjZHklKn+A6Nj1W4D8StX6fOVNmzYoz0HjhUVzxnEryAiPBpYSGyVcLcXvNCQkKoQnlPGjF0WIQskGGDsDxkPyBsDyISRCJkEqAOoGqlKlxO1jjo3CleuCjNmjmLj3EgpAo5N1zNFYIft6EgAG7kpA9GaRKHunC0UNurJsFyNpwj5aS8K3y1flwyKJAnL5vGcLQutXzPbt3Is7wn4TgHeIZaARAW4HpAsBeuu19XlmFbu3otjwfmVds2bQlHLSIntXrVai4HQhJc94b1G1D63/+gwOmWje/cuXMZBgxlRsfBuGn+3HkI3K+k5OKHAGHqwBbN6suCFCFARJvm2TNnmM1VtGAhatemLQ8+qEwI28ngqxCta6ThJNLXpZZz97DaNwihZc2chaBgx1H34OFDNlx35PDhCEUO7T9AA/v152u3YBeuXmW5AvjyxUuCIqSZM2ZorNu5s2fzsQyA4Cx6xPDhrEEwAtAoImQc1WyrV61izsLggQO1GwFqenyHMQbSbiiDK1a0KHk3bEgP7z+IVtOg+RJXEKE8DEb5hgweTH5d/AiExpfPlovmI0eMoGNHjzJcnNsj72rr1UzckADegX843MSYO2eOza2yaDVIyYwd/pDBQyhnjhzaNUYlOVEE1bmEDkHmqEQxD/Jp1SpK+aWHjx7xhgkfO73DtfShQ4YQiJTgJ08ZjxBY7t+vP/n5+ZH/+IkU/CycWwgO35RJAeTbpg3fjMJxEN6D5UuXkagjgM4dmKePzMk7qc+D24TYTOADKO+SPk98P0P7aEff9ny0fDoGH+ngp09p5IiR5NvWl/EMbgqUvT1SdHngCB8bhl49e7ICMhjYBNF+L+iu1n3It0HWA2MHBy5Kr569+GgUzwcPHqTpU6fxMbRWKIoAjq/z5s5jSKxGUdTtk11OgPBiDD0UKkWNx6+RU9g4h8RNC6iThsOOcP6cufRf//GfvMgibuKECdS4YSNW2HPw0EHau3sv7duzT3sZuGAS/ofrerilkj1rNurXuy9h5+TODredIHuSO0dO1q0gZ6XqO5YQ+4drqkWLFGWpeexYcSMiOg6chtu37ziVgxSd+vV5IWOFK75ZMmXm6++Srv9gS7y7+kb9AbcP8lU1q9fg3TQEsmPiwklUS+mQ58/p2rVrkR6ZYseNTdfDR+FaiWNSt1oGAuvY4RfIm482rN+gJiW4cNCdIOY44GYkLiCAQI+ug8Av8AwBYSOHMQee8XO1gxzQ+DFjqUDe/Cy0rxdGdnX9CQG+ywkQfSeNJjXy4KW4fee2ln3+vHl8di73rJGAe+A9u3XXWI0zZ8zkK2e4uz1w4EDq368f3+MWxUsasCQcABECGQRo5ytVshQ1qt+A76vjA9LWpzV/SODLD7ssSO7DlzjxwXnq4NuO2rVty/ok4AMOfu19fTlO8kIOAel4btemDZeTOiWPIz7K4PouWJ1Y+HEDBDsVeS/U90kNJ7Qhhw4B9KNg/gIsK9O9Wzc+Ypk4fiJNGD/B7g9E9tTJk2n6tGl8AwI3WRAnZSYHTKYpk6fQ1MlTSMJQpjRq2HCaPn06l+My4yewraMA/wAui+MdgWHojxtP3LZx4wnXICHAOnDAAP5YFS1chMdj186dGpoTMu61RjopcObMWb7CXKxIUZbxAFGM69HA6UTGm+AaYzWR4yeMt+ARuMTtMc4/wTL2yIPbLTOmTeexhE0qzq+N0Xgec4yv5T2Ywrtwfg8wPuMnEITzMUaAj7KAKTC4XWib9ec/fgIfPeBGVK7sOVhWDNpXxclYii/x8eWr7YA8CLitWAsgV9apQ0cWyMa7aumf4BvvN95hi8/v8ER//nYAh1MmT7bMIyv+gMNJ/v582QF4xqUHxqcVZ5Y5Mp5vowHXMgcxluCI4Bl1wXQC5hviLXWH453HfsJEbn+7tu1YrrF8+fJ8TA5bPuLU/kpcYvVdR4AIv48FoIztpuDjuHXzFurWtRvly5uPXxhwOuDAcoOwIwZDHRAowQLLHw5nqNBTcfd2EEEQFbsD3NKQK7tqOS6QhP9BDTFUooPihv4H6AnBOXTjht42fhPvRoSfURrnbehtSbeW47w6GFzWDmwbuFJPJD4Evlo1b8HWideuXUvQFqh3+ndEnx6Xz5G9c3ifcW1yzKjRbLcDck1dOnZmti9Yv/Z+XTt2YnMBnG7Nj6ucPfy68q9yhYqULnUa+jtDRhYGhpBqoXz5KVWKFAQZEdjywbVoXBUEDNEVYa8+LV7XNsCFXBZuAjiqFCouce/KumRdkjogNwAh47GjRvPNIg1nVvzysxV/Gr7x3DEc/4hHPknnZwXnMl4R8uBdscKxeX+s8KVuPXyOR30dOjIxjCunWH/lOEH6Jn58z6vI5tL5c+dYASH6CCJEw4eCf8Gr4EPy2MTr5p3gTCtjhQdZp66dOpNfR/w6WcMWH/HIry8rz/r6cEwKUxY4QoOArDi1v2pY0hOj7zoCRIct0COYxDg7vnj+Ai/C0FAKRVK4zTB39hwmHuwh3l68rhrtEfmjW0Yr7MYB6bP4Rl2BlUcoKALLz+b3QnlWwhHyqmUlrOS3gSl1IF3yIi6q/FLu5UuLRc8vQtFaesRPujGOrM9GeHBVnNoOhPmnqww4hcAvrJfiAxDpj62chtjkh4zATRjZ6tqNcmTJyrcmoJMAgr6ABc2MbVv5UOYMGVmyHvILIBq4HitSHD+NAAABHElEQVS8yOrUtw3P0MAKC6JJyclYio++q2E8Q9ZGcGvBm248g61jJ+Ms+IePOKPx1b8Xah4ug3dHX49lfLWxk3RrWRlvy1g+txFGljGVvokv8fHt22sPCEELDq344DllgFcVZyouDfDM+JP8kNNR8wh88ZFPfoJvlMFck2d1/GGtODg4gqVdwa+9fkp6YvNdRoB80dmKfffmLQvP4X57lr8z8Zk4lCtBO6CR2WNBtNGASJzelzLwJU2NSyphfd/1z+6MB31f5Fn8+OxbXLYBugtKly7NeiZwI0Ik+dX+46oyhIVxVAD9OKpGYTVfTMP6/uqfYwo3oZWTfomf0NoX2/ZIv+BLOLYwY1veqB1qnBqObV0JoXxi64+jOP3/QQauehKIXlAAAAAASUVORK5CYII=;" parent="1" vertex="1">
          <mxGeometry x="130" y="180" width="644.74" height="256" as="geometry" />
        </mxCell>
        <mxCell id="mp4lFU_r3pzBxrtEqFHD-5" value="" style="fontColor=#0066CC;verticalAlign=top;verticalLabelPosition=bottom;labelPosition=center;align=center;html=1;outlineConnect=0;fillColor=#CCCCCC;strokeColor=#6881B3;gradientColor=none;gradientDirection=north;strokeWidth=2;shape=mxgraph.networks.radio_tower;" parent="1" vertex="1">
          <mxGeometry x="100" y="410" width="55" height="100" as="geometry" />
        </mxCell>
        <mxCell id="mp4lFU_r3pzBxrtEqFHD-6" value="" style="html=1;verticalLabelPosition=bottom;align=center;labelBackgroundColor=#ffffff;verticalAlign=top;strokeWidth=2;strokeColor=#0080F0;shadow=0;dashed=0;shape=mxgraph.ios7.icons.smartphone;" parent="1" vertex="1">
          <mxGeometry x="50" y="540" width="18" height="30" as="geometry" />
        </mxCell>
        <mxCell id="mp4lFU_r3pzBxrtEqFHD-7" value="" style="endArrow=none;html=1;exitX=0.722;exitY=0;exitDx=0;exitDy=0;exitPerimeter=0;entryX=0.364;entryY=0.7;entryDx=0;entryDy=0;entryPerimeter=0;" parent="1" source="mp4lFU_r3pzBxrtEqFHD-6" target="mp4lFU_r3pzBxrtEqFHD-5" edge="1">
          <mxGeometry width="50" height="50" relative="1" as="geometry">
            <mxPoint x="400" y="420" as="sourcePoint" />
            <mxPoint x="280" y="480" as="targetPoint" />
          </mxGeometry>
        </mxCell>
        <mxCell id="mp4lFU_r3pzBxrtEqFHD-9" value="" style="rounded=1;whiteSpace=wrap;html=1;fillColor=none;dashed=1;" parent="1" vertex="1">
          <mxGeometry x="140" y="160" width="360" height="140" as="geometry" />
        </mxCell>
        <mxCell id="mp4lFU_r3pzBxrtEqFHD-10" value="Namespace-1 (Vendor-1)" style="text;html=1;strokeColor=none;fillColor=none;align=center;verticalAlign=middle;whiteSpace=wrap;rounded=0;" parent="1" vertex="1">
          <mxGeometry x="240" y="160" width="170" height="20" as="geometry" />
        </mxCell>
        <mxCell id="mp4lFU_r3pzBxrtEqFHD-11" value="" style="rounded=1;whiteSpace=wrap;html=1;fillColor=none;dashed=1;" parent="1" vertex="1">
          <mxGeometry x="520" y="160" width="250" height="140" as="geometry" />
        </mxCell>
        <mxCell id="mp4lFU_r3pzBxrtEqFHD-12" value="Namespace-2 (Vendor-2)" style="text;html=1;strokeColor=none;fillColor=none;align=center;verticalAlign=middle;whiteSpace=wrap;rounded=0;" parent="1" vertex="1">
          <mxGeometry x="550" y="160" width="170" height="20" as="geometry" />
        </mxCell>
        <mxCell id="mp4lFU_r3pzBxrtEqFHD-13" value="" style="rounded=1;whiteSpace=wrap;html=1;fillColor=none;dashed=1;" parent="1" vertex="1">
          <mxGeometry x="250" y="320" width="360" height="140" as="geometry" />
        </mxCell>
        <mxCell id="mp4lFU_r3pzBxrtEqFHD-14" value="Namespace-3 (Vendor-3)" style="text;html=1;strokeColor=none;fillColor=none;align=center;verticalAlign=middle;whiteSpace=wrap;rounded=0;" parent="1" vertex="1">
          <mxGeometry x="350" y="436" width="170" height="20" as="geometry" />
        </mxCell>
        <mxCell id="mp4lFU_r3pzBxrtEqFHD-15" value="" style="rounded=1;whiteSpace=wrap;html=1;fillColor=none;dashed=1;" parent="1" vertex="1">
          <mxGeometry x="620" y="320" width="150" height="140" as="geometry" />
        </mxCell>
        <mxCell id="mp4lFU_r3pzBxrtEqFHD-16" value="Namespace-4 (Vendor-4)" style="text;html=1;strokeColor=none;fillColor=none;align=center;verticalAlign=middle;whiteSpace=wrap;rounded=0;" parent="1" vertex="1">
          <mxGeometry x="610" y="436" width="170" height="20" as="geometry" />
        </mxCell>
      </root>
    </mxGraphModel>
  </diagram>
</mxfile>
